%TF.GenerationSoftware,KiCad,Pcbnew,(6.0.7)*%
%TF.CreationDate,2022-09-28T21:23:56+08:00*%
%TF.ProjectId,ferris_left,66657272-6973-45f6-9c65-66742e6b6963,rev?*%
%TF.SameCoordinates,Original*%
%TF.FileFunction,Soldermask,Top*%
%TF.FilePolarity,Negative*%
%FSLAX46Y46*%
G04 Gerber Fmt 4.6, Leading zero omitted, Abs format (unit mm)*
G04 Created by KiCad (PCBNEW (6.0.7)) date 2022-09-28 21:23:56*
%MOMM*%
%LPD*%
G01*
G04 APERTURE LIST*
G04 Aperture macros list*
%AMRoundRect*
0 Rectangle with rounded corners*
0 $1 Rounding radius*
0 $2 $3 $4 $5 $6 $7 $8 $9 X,Y pos of 4 corners*
0 Add a 4 corners polygon primitive as box body*
4,1,4,$2,$3,$4,$5,$6,$7,$8,$9,$2,$3,0*
0 Add four circle primitives for the rounded corners*
1,1,$1+$1,$2,$3*
1,1,$1+$1,$4,$5*
1,1,$1+$1,$6,$7*
1,1,$1+$1,$8,$9*
0 Add four rect primitives between the rounded corners*
20,1,$1+$1,$2,$3,$4,$5,0*
20,1,$1+$1,$4,$5,$6,$7,0*
20,1,$1+$1,$6,$7,$8,$9,0*
20,1,$1+$1,$8,$9,$2,$3,0*%
%AMHorizOval*
0 Thick line with rounded ends*
0 $1 width*
0 $2 $3 position (X,Y) of the first rounded end (center of the circle)*
0 $4 $5 position (X,Y) of the second rounded end (center of the circle)*
0 Add line between two ends*
20,1,$1,$2,$3,$4,$5,0*
0 Add two circle primitives to create the rounded ends*
1,1,$1,$2,$3*
1,1,$1,$4,$5*%
G04 Aperture macros list end*
%ADD10O,1.600000X2.100000*%
%ADD11O,2.100000X1.600000*%
%ADD12RoundRect,0.300000X0.325000X0.450000X-0.325000X0.450000X-0.325000X-0.450000X0.325000X-0.450000X0*%
%ADD13RoundRect,0.050000X-0.450000X-0.600000X0.450000X-0.600000X0.450000X0.600000X-0.450000X0.600000X0*%
%ADD14C,0.750000*%
%ADD15RoundRect,0.050000X0.725000X-0.300000X0.725000X0.300000X-0.725000X0.300000X-0.725000X-0.300000X0*%
%ADD16RoundRect,0.050000X0.725000X-0.150000X0.725000X0.150000X-0.725000X0.150000X-0.725000X-0.150000X0*%
%ADD17O,1.700000X1.100000*%
%ADD18O,2.200000X1.100000*%
%ADD19RoundRect,0.050000X-0.661409X-0.353606X0.154268X-0.733963X0.661409X0.353606X-0.154268X0.733963X0*%
%ADD20RoundRect,0.050000X-0.589958X-0.463087X0.279375X-0.696024X0.589958X0.463087X-0.279375X0.696024X0*%
%ADD21RoundRect,0.300000X-0.325000X-0.450000X0.325000X-0.450000X0.325000X0.450000X-0.325000X0.450000X0*%
%ADD22HorizOval,1.600000X-0.105655X-0.226577X0.105655X0.226577X0*%
%ADD23HorizOval,1.600000X0.226577X-0.105655X-0.226577X0.105655X0*%
%ADD24C,0.900000*%
%ADD25O,2.100000X1.700000*%
%ADD26HorizOval,1.600000X-0.064705X-0.241481X0.064705X0.241481X0*%
%ADD27HorizOval,1.600000X0.241481X-0.064705X-0.241481X0.064705X0*%
%ADD28RoundRect,0.300000X0.375000X0.625000X-0.375000X0.625000X-0.375000X-0.625000X0.375000X-0.625000X0*%
%ADD29RoundRect,0.300000X0.450000X-0.325000X0.450000X0.325000X-0.450000X0.325000X-0.450000X-0.325000X0*%
%ADD30RoundRect,0.050000X0.450000X0.600000X-0.450000X0.600000X-0.450000X-0.600000X0.450000X-0.600000X0*%
%ADD31RoundRect,0.050000X-0.450000X-0.400000X0.450000X-0.400000X0.450000X0.400000X-0.450000X0.400000X0*%
%ADD32RoundRect,0.050000X-0.850000X0.450000X-0.850000X-0.450000X0.850000X-0.450000X0.850000X0.450000X0*%
%ADD33RoundRect,0.112500X0.062500X-0.375000X0.062500X0.375000X-0.062500X0.375000X-0.062500X-0.375000X0*%
%ADD34C,0.850000*%
%ADD35RoundRect,0.125000X0.075000X-0.662500X0.075000X0.662500X-0.075000X0.662500X-0.075000X-0.662500X0*%
%ADD36RoundRect,0.112500X0.375000X-0.062500X0.375000X0.062500X-0.375000X0.062500X-0.375000X-0.062500X0*%
%ADD37RoundRect,0.125000X0.662500X-0.075000X0.662500X0.075000X-0.662500X0.075000X-0.662500X-0.075000X0*%
%ADD38RoundRect,0.050000X2.575000X-2.575000X2.575000X2.575000X-2.575000X2.575000X-2.575000X-2.575000X0*%
%ADD39RoundRect,0.050000X-0.530000X-0.325000X0.530000X-0.325000X0.530000X0.325000X-0.530000X0.325000X0*%
G04 APERTURE END LIST*
D10*
%TO.C,K0_0*%
X17700000Y-46100000D03*
D11*
X24250000Y-46400000D03*
D10*
X27300000Y-36250000D03*
X16700000Y-36250000D03*
%TD*%
D12*
%TO.C,R1*%
X106172204Y-54811285D03*
X104122204Y-54811285D03*
%TD*%
D13*
%TO.C,D2_1*%
X38350000Y-58650000D03*
X41650000Y-58650000D03*
%TD*%
D10*
%TO.C,K1_3*%
X71700000Y-49600000D03*
D11*
X78250000Y-49900000D03*
D10*
X81300000Y-39750000D03*
X70700000Y-39750000D03*
%TD*%
D13*
%TO.C,D1_0*%
X20350000Y-53650000D03*
X23650000Y-53650000D03*
%TD*%
%TO.C,D2_4*%
X92350000Y-59650000D03*
X95650000Y-59650000D03*
%TD*%
%TO.C,D2_0*%
X20350000Y-70650000D03*
X23650000Y-70650000D03*
%TD*%
%TO.C,D0_2*%
X56350000Y-17650000D03*
X59650000Y-17650000D03*
%TD*%
D14*
%TO.C,J1*%
X105985000Y-45370000D03*
X105985000Y-51150000D03*
D15*
X104540000Y-51510000D03*
X104540000Y-50710000D03*
D16*
X104540000Y-49510000D03*
X104540000Y-48510000D03*
X104540000Y-48010000D03*
X104540000Y-47010000D03*
D15*
X104540000Y-45810000D03*
X104540000Y-45010000D03*
X104540000Y-45010000D03*
X104540000Y-45810000D03*
D16*
X104540000Y-46510000D03*
X104540000Y-47510000D03*
X104540000Y-49010000D03*
X104540000Y-50010000D03*
D15*
X104540000Y-50710000D03*
X104540000Y-51510000D03*
D17*
X109635000Y-52580000D03*
X109635000Y-43940000D03*
D18*
X105455000Y-43940000D03*
X105455000Y-52580000D03*
%TD*%
D10*
%TO.C,K0_1*%
X35700000Y-34100000D03*
D11*
X42250000Y-34400000D03*
D10*
X45300000Y-24250000D03*
X34700000Y-24250000D03*
%TD*%
%TO.C,K2_4*%
X89700000Y-69100000D03*
D11*
X96250000Y-69400000D03*
D10*
X99300000Y-59250000D03*
X88700000Y-59250000D03*
%TD*%
%TO.C,K0_3*%
X71700000Y-32600000D03*
D11*
X78250000Y-32900000D03*
D10*
X81300000Y-22750000D03*
X70700000Y-22750000D03*
%TD*%
D13*
%TO.C,D1_1*%
X38350000Y-41650000D03*
X41650000Y-41650000D03*
%TD*%
%TO.C,D0_3*%
X74350000Y-23150000D03*
X77650000Y-23150000D03*
%TD*%
D19*
%TO.C,D3_4*%
X102022726Y-85359459D03*
X105013542Y-86754099D03*
%TD*%
D10*
%TO.C,K2_0*%
X17700000Y-80100000D03*
D11*
X24250000Y-80400000D03*
D10*
X27300000Y-70250000D03*
X16700000Y-70250000D03*
%TD*%
D13*
%TO.C,D2_2*%
X56350000Y-51800000D03*
X59650000Y-51800000D03*
%TD*%
D10*
%TO.C,K2_3*%
X71700000Y-66600000D03*
D11*
X78250000Y-66900000D03*
D10*
X81300000Y-56750000D03*
X70700000Y-56750000D03*
%TD*%
D20*
%TO.C,D3_3*%
X82771223Y-78627948D03*
X85958779Y-79482050D03*
%TD*%
D13*
%TO.C,D1_3*%
X74350000Y-39900000D03*
X77650000Y-39900000D03*
%TD*%
%TO.C,D1_2*%
X56350000Y-34650000D03*
X59650000Y-34650000D03*
%TD*%
D21*
%TO.C,R2*%
X107560000Y-59055000D03*
X109610000Y-59055000D03*
%TD*%
D13*
%TO.C,D0_0*%
X20350000Y-36650000D03*
X23650000Y-36650000D03*
%TD*%
D10*
%TO.C,K0_4*%
X89700000Y-35100000D03*
D11*
X96250000Y-35400000D03*
D10*
X99300000Y-25250000D03*
X88700000Y-25250000D03*
%TD*%
%TO.C,K1_0*%
X17700000Y-63100000D03*
D11*
X24250000Y-63400000D03*
D10*
X27300000Y-53250000D03*
X16700000Y-53250000D03*
%TD*%
%TO.C,K0_2*%
X53700000Y-27100000D03*
D11*
X60250000Y-27400000D03*
D10*
X63300000Y-17250000D03*
X52700000Y-17250000D03*
%TD*%
D13*
%TO.C,D1_4*%
X92350000Y-42650000D03*
X95650000Y-42650000D03*
%TD*%
%TO.C,D0_4*%
X92350000Y-25650000D03*
X95650000Y-25650000D03*
%TD*%
%TO.C,D0_1*%
X38350000Y-24650000D03*
X41650000Y-24650000D03*
%TD*%
D22*
%TO.C,K3_4*%
X95625517Y-92726776D03*
D23*
X101435048Y-95766818D03*
D22*
X108488862Y-87856780D03*
X98881999Y-83377026D03*
%TD*%
D10*
%TO.C,K1_1*%
X35700000Y-51100000D03*
D11*
X42250000Y-51400000D03*
D10*
X45300000Y-41250000D03*
X34700000Y-41250000D03*
%TD*%
%TO.C,K1_2*%
X53700000Y-44100000D03*
D11*
X60250000Y-44400000D03*
D10*
X63300000Y-34250000D03*
X52700000Y-34250000D03*
%TD*%
D13*
%TO.C,D2_3*%
X74350000Y-57150000D03*
X77650000Y-57150000D03*
%TD*%
D10*
%TO.C,K2_1*%
X35700000Y-68100000D03*
D11*
X42250000Y-68400000D03*
D10*
X45300000Y-58250000D03*
X34700000Y-58250000D03*
%TD*%
%TO.C,K1_4*%
X89700000Y-52100000D03*
D11*
X96250000Y-52400000D03*
D10*
X99300000Y-42250000D03*
X88700000Y-42250000D03*
%TD*%
D24*
%TO.C,Jack0*%
X110192500Y-76200000D03*
X103192500Y-76200000D03*
D25*
X105592500Y-78500000D03*
X108592500Y-78500000D03*
X100492500Y-73900000D03*
X101592500Y-78500000D03*
%TD*%
D26*
%TO.C,K3_3*%
X77711542Y-86998300D03*
D27*
X83960710Y-88983342D03*
D26*
X89533797Y-79968593D03*
X79294984Y-77225111D03*
%TD*%
D10*
%TO.C,K2_2*%
X53700000Y-61100000D03*
D11*
X60250000Y-61400000D03*
D10*
X63300000Y-51250000D03*
X52700000Y-51250000D03*
%TD*%
D28*
%TO.C,F1*%
X109570001Y-65670003D03*
X106770001Y-65670003D03*
%TD*%
D29*
%TO.C,C1*%
X110396873Y-56751612D03*
X110396873Y-54701612D03*
%TD*%
D21*
%TO.C,C2*%
X96130000Y-74930000D03*
X98180000Y-74930000D03*
%TD*%
D12*
%TO.C,C3*%
X41525000Y-77250000D03*
X39475000Y-77250000D03*
%TD*%
%TO.C,C4*%
X41525000Y-81250000D03*
X39475000Y-81250000D03*
%TD*%
%TO.C,C5*%
X55525000Y-66500000D03*
X53475000Y-66500000D03*
%TD*%
D21*
%TO.C,C6*%
X57475000Y-66500000D03*
X59525000Y-66500000D03*
%TD*%
%TO.C,C7*%
X70975000Y-80750000D03*
X73025000Y-80750000D03*
%TD*%
%TO.C,C8*%
X70975000Y-83000000D03*
X73025000Y-83000000D03*
%TD*%
%TO.C,C9*%
X39475000Y-79250000D03*
X41525000Y-79250000D03*
%TD*%
D12*
%TO.C,C10*%
X73025000Y-77500000D03*
X70975000Y-77500000D03*
%TD*%
%TO.C,C11*%
X73025000Y-75250000D03*
X70975000Y-75250000D03*
%TD*%
D30*
%TO.C,D1*%
X109820001Y-68170003D03*
X106520001Y-68170003D03*
%TD*%
%TO.C,D2*%
X109820001Y-70670003D03*
X106520001Y-70670003D03*
%TD*%
D13*
%TO.C,D3*%
X43350000Y-76750000D03*
X46650000Y-76750000D03*
%TD*%
D31*
%TO.C,Q1*%
X44000000Y-79050000D03*
X44000000Y-80950000D03*
X46000000Y-80000000D03*
%TD*%
D21*
%TO.C,R4*%
X107560000Y-80645000D03*
X109610000Y-80645000D03*
%TD*%
D12*
%TO.C,R5*%
X41525000Y-75250000D03*
X39475000Y-75250000D03*
%TD*%
D32*
%TO.C,SW1*%
X36195000Y-77675000D03*
X36195000Y-81075000D03*
%TD*%
D33*
%TO.C,U1*%
X57750000Y-79937500D03*
D34*
X55000000Y-84000000D03*
D35*
X57750000Y-80662500D03*
X58250000Y-80662500D03*
D33*
X58250000Y-79937500D03*
D34*
X56000000Y-84000000D03*
D35*
X58750000Y-80662500D03*
D33*
X58750000Y-79937500D03*
D34*
X57000000Y-84000000D03*
D33*
X59250000Y-79937500D03*
D34*
X58000000Y-84000000D03*
D35*
X59250000Y-80662500D03*
D34*
X59000000Y-84000000D03*
D33*
X59750000Y-79937500D03*
D35*
X59750000Y-80662500D03*
X60250000Y-80662500D03*
D34*
X60000000Y-84000000D03*
D33*
X60250000Y-79937500D03*
X60750000Y-79937500D03*
D35*
X60750000Y-80662500D03*
D34*
X61000000Y-84000000D03*
D35*
X61250000Y-80662500D03*
D33*
X61250000Y-79937500D03*
D34*
X62000000Y-84000000D03*
X63000000Y-84000000D03*
D35*
X61750000Y-80662500D03*
D33*
X61750000Y-79937500D03*
D34*
X64000000Y-84000000D03*
D35*
X62250000Y-80662500D03*
D33*
X62250000Y-79937500D03*
X62750000Y-79937500D03*
D35*
X62750000Y-80662500D03*
D34*
X65000000Y-84000000D03*
X66000000Y-84000000D03*
D35*
X63250000Y-80662500D03*
D33*
X63250000Y-79937500D03*
D34*
X68000000Y-82000000D03*
D36*
X63937500Y-79250000D03*
D37*
X64662500Y-79250000D03*
D36*
X63937500Y-78750000D03*
D34*
X68000000Y-81000000D03*
D37*
X64662500Y-78750000D03*
D36*
X63937500Y-78250000D03*
D34*
X68000000Y-80000000D03*
D37*
X64662500Y-78250000D03*
X64662500Y-77750000D03*
D36*
X63937500Y-77750000D03*
D34*
X68000000Y-79000000D03*
X68000000Y-78000000D03*
D36*
X63937500Y-77250000D03*
D37*
X64662500Y-77250000D03*
D34*
X68000000Y-77000000D03*
D36*
X63937500Y-76750000D03*
D37*
X64662500Y-76750000D03*
X64662500Y-76250000D03*
D36*
X63937500Y-76250000D03*
D34*
X68000000Y-76000000D03*
X68000000Y-75000000D03*
D37*
X64662500Y-75750000D03*
D36*
X63937500Y-75750000D03*
D34*
X68000000Y-74000000D03*
D37*
X64662500Y-75250000D03*
D36*
X63937500Y-75250000D03*
D34*
X68000000Y-73000000D03*
D36*
X63937500Y-74750000D03*
D37*
X64662500Y-74750000D03*
D36*
X63937500Y-74250000D03*
D37*
X64662500Y-74250000D03*
D34*
X68000000Y-72000000D03*
D36*
X63937500Y-73750000D03*
D37*
X64662500Y-73750000D03*
D34*
X68000000Y-71000000D03*
D35*
X63250000Y-72337500D03*
D33*
X63250000Y-73062500D03*
D34*
X66000000Y-69000000D03*
X65000000Y-69000000D03*
D33*
X62750000Y-73062500D03*
D35*
X62750000Y-72337500D03*
X62250000Y-72337500D03*
D33*
X62250000Y-73062500D03*
D34*
X64000000Y-69000000D03*
D35*
X61750000Y-72337500D03*
D33*
X61750000Y-73062500D03*
D34*
X63000000Y-69000000D03*
D33*
X61250000Y-73062500D03*
D34*
X62000000Y-69000000D03*
D35*
X61250000Y-72337500D03*
D34*
X61000000Y-69000000D03*
D33*
X60750000Y-73062500D03*
D35*
X60750000Y-72337500D03*
D34*
X60000000Y-69000000D03*
D33*
X60250000Y-73062500D03*
D35*
X60250000Y-72337500D03*
D34*
X59000000Y-69000000D03*
D33*
X59750000Y-73062500D03*
D35*
X59750000Y-72337500D03*
X59250000Y-72337500D03*
D33*
X59250000Y-73062500D03*
D34*
X58000000Y-69000000D03*
D35*
X58750000Y-72337500D03*
D34*
X57000000Y-69000000D03*
D33*
X58750000Y-73062500D03*
D34*
X56000000Y-69000000D03*
D33*
X58250000Y-73062500D03*
D35*
X58250000Y-72337500D03*
D34*
X55000000Y-69000000D03*
D35*
X57750000Y-72337500D03*
D33*
X57750000Y-73062500D03*
D37*
X56337500Y-73750000D03*
D34*
X53000000Y-71000000D03*
D36*
X57062500Y-73750000D03*
D37*
X56337500Y-74250000D03*
D36*
X57062500Y-74250000D03*
D34*
X53000000Y-72000000D03*
D36*
X57062500Y-74750000D03*
D37*
X56337500Y-74750000D03*
D34*
X53000000Y-73000000D03*
D36*
X57062500Y-75250000D03*
D34*
X53000000Y-74000000D03*
D37*
X56337500Y-75250000D03*
D36*
X57062500Y-75750000D03*
D34*
X53000000Y-75000000D03*
D37*
X56337500Y-75750000D03*
X56337500Y-76250000D03*
D34*
X53000000Y-76000000D03*
D36*
X57062500Y-76250000D03*
D34*
X53000000Y-77000000D03*
D37*
X56337500Y-76750000D03*
D36*
X57062500Y-76750000D03*
X57062500Y-77250000D03*
D37*
X56337500Y-77250000D03*
D34*
X53000000Y-78000000D03*
D36*
X57062500Y-77750000D03*
D34*
X53000000Y-79000000D03*
D37*
X56337500Y-77750000D03*
X56337500Y-78250000D03*
D34*
X53000000Y-80000000D03*
D36*
X57062500Y-78250000D03*
X57062500Y-78750000D03*
D37*
X56337500Y-78750000D03*
D34*
X53000000Y-81000000D03*
D37*
X56337500Y-79250000D03*
D34*
X53000000Y-82000000D03*
D36*
X57062500Y-79250000D03*
D38*
X60500000Y-76500000D03*
%TD*%
D31*
%TO.C,U3*%
X103775000Y-56835000D03*
X103775000Y-58735000D03*
X105775000Y-57785000D03*
%TD*%
D39*
%TO.C,U4*%
X107070001Y-61470003D03*
X107070001Y-62420003D03*
X107070001Y-63370003D03*
X109270001Y-63370003D03*
X109270001Y-62420003D03*
X109270001Y-61470003D03*
%TD*%
D29*
%TO.C,R3*%
X108189320Y-56751612D03*
X108189320Y-54701612D03*
%TD*%
M02*
