%TF.GenerationSoftware,KiCad,Pcbnew,(6.0.7)*%
%TF.CreationDate,2022-09-28T21:23:56+08:00*%
%TF.ProjectId,ferris_left,66657272-6973-45f6-9c65-66742e6b6963,rev?*%
%TF.SameCoordinates,Original*%
%TF.FileFunction,Paste,Top*%
%TF.FilePolarity,Positive*%
%FSLAX46Y46*%
G04 Gerber Fmt 4.6, Leading zero omitted, Abs format (unit mm)*
G04 Created by KiCad (PCBNEW (6.0.7)) date 2022-09-28 21:23:56*
%MOMM*%
%LPD*%
G01*
G04 APERTURE LIST*
G04 Aperture macros list*
%AMRoundRect*
0 Rectangle with rounded corners*
0 $1 Rounding radius*
0 $2 $3 $4 $5 $6 $7 $8 $9 X,Y pos of 4 corners*
0 Add a 4 corners polygon primitive as box body*
4,1,4,$2,$3,$4,$5,$6,$7,$8,$9,$2,$3,0*
0 Add four circle primitives for the rounded corners*
1,1,$1+$1,$2,$3*
1,1,$1+$1,$4,$5*
1,1,$1+$1,$6,$7*
1,1,$1+$1,$8,$9*
0 Add four rect primitives between the rounded corners*
20,1,$1+$1,$2,$3,$4,$5,0*
20,1,$1+$1,$4,$5,$6,$7,0*
20,1,$1+$1,$6,$7,$8,$9,0*
20,1,$1+$1,$8,$9,$2,$3,0*%
%AMRotRect*
0 Rectangle, with rotation*
0 The origin of the aperture is its center*
0 $1 length*
0 $2 width*
0 $3 Rotation angle, in degrees counterclockwise*
0 Add horizontal line*
21,1,$1,$2,0,0,$3*%
G04 Aperture macros list end*
%ADD10RoundRect,0.250000X0.325000X0.450000X-0.325000X0.450000X-0.325000X-0.450000X0.325000X-0.450000X0*%
%ADD11R,0.900000X1.200000*%
%ADD12R,1.450000X0.600000*%
%ADD13R,1.450000X0.300000*%
%ADD14RotRect,0.900000X1.200000X335.000000*%
%ADD15RotRect,0.900000X1.200000X345.000000*%
%ADD16RoundRect,0.250000X-0.325000X-0.450000X0.325000X-0.450000X0.325000X0.450000X-0.325000X0.450000X0*%
%ADD17RoundRect,0.250000X0.375000X0.625000X-0.375000X0.625000X-0.375000X-0.625000X0.375000X-0.625000X0*%
%ADD18RoundRect,0.250000X0.450000X-0.325000X0.450000X0.325000X-0.450000X0.325000X-0.450000X-0.325000X0*%
%ADD19R,0.900000X0.800000*%
%ADD20R,1.700000X0.900000*%
%ADD21RoundRect,0.249323X0.249323X-0.249323X0.249323X0.249323X-0.249323X0.249323X-0.249323X-0.249323X0*%
%ADD22RoundRect,0.062500X0.062500X-0.375000X0.062500X0.375000X-0.062500X0.375000X-0.062500X-0.375000X0*%
%ADD23RoundRect,0.075000X0.075000X-0.662500X0.075000X0.662500X-0.075000X0.662500X-0.075000X-0.662500X0*%
%ADD24RoundRect,0.062500X0.375000X-0.062500X0.375000X0.062500X-0.375000X0.062500X-0.375000X-0.062500X0*%
%ADD25RoundRect,0.075000X0.662500X-0.075000X0.662500X0.075000X-0.662500X0.075000X-0.662500X-0.075000X0*%
%ADD26R,1.060000X0.650000*%
G04 APERTURE END LIST*
D10*
%TO.C,R1*%
X106172204Y-54811285D03*
X104122204Y-54811285D03*
%TD*%
D11*
%TO.C,D2_1*%
X38350000Y-58650000D03*
X41650000Y-58650000D03*
%TD*%
%TO.C,D1_0*%
X20350000Y-53650000D03*
X23650000Y-53650000D03*
%TD*%
%TO.C,D2_4*%
X92350000Y-59650000D03*
X95650000Y-59650000D03*
%TD*%
%TO.C,D2_0*%
X20350000Y-70650000D03*
X23650000Y-70650000D03*
%TD*%
%TO.C,D0_2*%
X56350000Y-17650000D03*
X59650000Y-17650000D03*
%TD*%
D12*
%TO.C,J1*%
X104540000Y-51510000D03*
X104540000Y-50710000D03*
D13*
X104540000Y-49510000D03*
X104540000Y-48510000D03*
X104540000Y-48010000D03*
X104540000Y-47010000D03*
D12*
X104540000Y-45810000D03*
X104540000Y-45010000D03*
X104540000Y-45010000D03*
X104540000Y-45810000D03*
D13*
X104540000Y-46510000D03*
X104540000Y-47510000D03*
X104540000Y-49010000D03*
X104540000Y-50010000D03*
D12*
X104540000Y-50710000D03*
X104540000Y-51510000D03*
%TD*%
D11*
%TO.C,D1_1*%
X38350000Y-41650000D03*
X41650000Y-41650000D03*
%TD*%
%TO.C,D0_3*%
X74350000Y-23150000D03*
X77650000Y-23150000D03*
%TD*%
D14*
%TO.C,D3_4*%
X102022726Y-85359459D03*
X105013542Y-86754099D03*
%TD*%
D11*
%TO.C,D2_2*%
X56350000Y-51800000D03*
X59650000Y-51800000D03*
%TD*%
D15*
%TO.C,D3_3*%
X82771223Y-78627948D03*
X85958779Y-79482050D03*
%TD*%
D11*
%TO.C,D1_3*%
X74350000Y-39900000D03*
X77650000Y-39900000D03*
%TD*%
%TO.C,D1_2*%
X56350000Y-34650000D03*
X59650000Y-34650000D03*
%TD*%
D16*
%TO.C,R2*%
X107560000Y-59055000D03*
X109610000Y-59055000D03*
%TD*%
D11*
%TO.C,D0_0*%
X20350000Y-36650000D03*
X23650000Y-36650000D03*
%TD*%
%TO.C,D1_4*%
X92350000Y-42650000D03*
X95650000Y-42650000D03*
%TD*%
%TO.C,D0_4*%
X92350000Y-25650000D03*
X95650000Y-25650000D03*
%TD*%
%TO.C,D0_1*%
X38350000Y-24650000D03*
X41650000Y-24650000D03*
%TD*%
%TO.C,D2_3*%
X74350000Y-57150000D03*
X77650000Y-57150000D03*
%TD*%
D17*
%TO.C,F1*%
X109570001Y-65670003D03*
X106770001Y-65670003D03*
%TD*%
D18*
%TO.C,C1*%
X110396873Y-56751612D03*
X110396873Y-54701612D03*
%TD*%
D16*
%TO.C,C2*%
X96130000Y-74930000D03*
X98180000Y-74930000D03*
%TD*%
D10*
%TO.C,C3*%
X41525000Y-77250000D03*
X39475000Y-77250000D03*
%TD*%
%TO.C,C4*%
X41525000Y-81250000D03*
X39475000Y-81250000D03*
%TD*%
%TO.C,C5*%
X55525000Y-66500000D03*
X53475000Y-66500000D03*
%TD*%
D16*
%TO.C,C6*%
X57475000Y-66500000D03*
X59525000Y-66500000D03*
%TD*%
%TO.C,C7*%
X70975000Y-80750000D03*
X73025000Y-80750000D03*
%TD*%
%TO.C,C8*%
X70975000Y-83000000D03*
X73025000Y-83000000D03*
%TD*%
%TO.C,C9*%
X39475000Y-79250000D03*
X41525000Y-79250000D03*
%TD*%
D10*
%TO.C,C10*%
X73025000Y-77500000D03*
X70975000Y-77500000D03*
%TD*%
%TO.C,C11*%
X73025000Y-75250000D03*
X70975000Y-75250000D03*
%TD*%
D11*
%TO.C,D1*%
X109820001Y-68170003D03*
X106520001Y-68170003D03*
%TD*%
%TO.C,D2*%
X109820001Y-70670003D03*
X106520001Y-70670003D03*
%TD*%
%TO.C,D3*%
X43350000Y-76750000D03*
X46650000Y-76750000D03*
%TD*%
D19*
%TO.C,Q1*%
X44000000Y-79050000D03*
X44000000Y-80950000D03*
X46000000Y-80000000D03*
%TD*%
D16*
%TO.C,R4*%
X107560000Y-80645000D03*
X109610000Y-80645000D03*
%TD*%
D10*
%TO.C,R5*%
X41525000Y-75250000D03*
X39475000Y-75250000D03*
%TD*%
D20*
%TO.C,SW1*%
X36195000Y-77675000D03*
X36195000Y-81075000D03*
%TD*%
D21*
%TO.C,U1*%
X62243750Y-75918750D03*
X58756250Y-78243750D03*
X61081250Y-74756250D03*
X62243750Y-78243750D03*
X58756250Y-77081250D03*
X58756250Y-75918750D03*
X62243750Y-77081250D03*
X59918750Y-77081250D03*
X58756250Y-74756250D03*
X59918750Y-75918750D03*
X61081250Y-75918750D03*
X61081250Y-78243750D03*
X61081250Y-77081250D03*
X59918750Y-78243750D03*
X62243750Y-74756250D03*
X59918750Y-74756250D03*
D22*
X57750000Y-79937500D03*
D23*
X57750000Y-80662500D03*
X58250000Y-80662500D03*
D22*
X58250000Y-79937500D03*
D23*
X58750000Y-80662500D03*
D22*
X58750000Y-79937500D03*
X59250000Y-79937500D03*
D23*
X59250000Y-80662500D03*
D22*
X59750000Y-79937500D03*
D23*
X59750000Y-80662500D03*
X60250000Y-80662500D03*
D22*
X60250000Y-79937500D03*
X60750000Y-79937500D03*
D23*
X60750000Y-80662500D03*
X61250000Y-80662500D03*
D22*
X61250000Y-79937500D03*
D23*
X61750000Y-80662500D03*
D22*
X61750000Y-79937500D03*
D23*
X62250000Y-80662500D03*
D22*
X62250000Y-79937500D03*
X62750000Y-79937500D03*
D23*
X62750000Y-80662500D03*
X63250000Y-80662500D03*
D22*
X63250000Y-79937500D03*
D24*
X63937500Y-79250000D03*
D25*
X64662500Y-79250000D03*
D24*
X63937500Y-78750000D03*
D25*
X64662500Y-78750000D03*
D24*
X63937500Y-78250000D03*
D25*
X64662500Y-78250000D03*
X64662500Y-77750000D03*
D24*
X63937500Y-77750000D03*
X63937500Y-77250000D03*
D25*
X64662500Y-77250000D03*
D24*
X63937500Y-76750000D03*
D25*
X64662500Y-76750000D03*
X64662500Y-76250000D03*
D24*
X63937500Y-76250000D03*
D25*
X64662500Y-75750000D03*
D24*
X63937500Y-75750000D03*
D25*
X64662500Y-75250000D03*
D24*
X63937500Y-75250000D03*
X63937500Y-74750000D03*
D25*
X64662500Y-74750000D03*
D24*
X63937500Y-74250000D03*
D25*
X64662500Y-74250000D03*
D24*
X63937500Y-73750000D03*
D25*
X64662500Y-73750000D03*
D23*
X63250000Y-72337500D03*
D22*
X63250000Y-73062500D03*
X62750000Y-73062500D03*
D23*
X62750000Y-72337500D03*
X62250000Y-72337500D03*
D22*
X62250000Y-73062500D03*
D23*
X61750000Y-72337500D03*
D22*
X61750000Y-73062500D03*
X61250000Y-73062500D03*
D23*
X61250000Y-72337500D03*
D22*
X60750000Y-73062500D03*
D23*
X60750000Y-72337500D03*
D22*
X60250000Y-73062500D03*
D23*
X60250000Y-72337500D03*
D22*
X59750000Y-73062500D03*
D23*
X59750000Y-72337500D03*
X59250000Y-72337500D03*
D22*
X59250000Y-73062500D03*
D23*
X58750000Y-72337500D03*
D22*
X58750000Y-73062500D03*
X58250000Y-73062500D03*
D23*
X58250000Y-72337500D03*
X57750000Y-72337500D03*
D22*
X57750000Y-73062500D03*
D25*
X56337500Y-73750000D03*
D24*
X57062500Y-73750000D03*
D25*
X56337500Y-74250000D03*
D24*
X57062500Y-74250000D03*
X57062500Y-74750000D03*
D25*
X56337500Y-74750000D03*
D24*
X57062500Y-75250000D03*
D25*
X56337500Y-75250000D03*
D24*
X57062500Y-75750000D03*
D25*
X56337500Y-75750000D03*
X56337500Y-76250000D03*
D24*
X57062500Y-76250000D03*
D25*
X56337500Y-76750000D03*
D24*
X57062500Y-76750000D03*
X57062500Y-77250000D03*
D25*
X56337500Y-77250000D03*
D24*
X57062500Y-77750000D03*
D25*
X56337500Y-77750000D03*
X56337500Y-78250000D03*
D24*
X57062500Y-78250000D03*
X57062500Y-78750000D03*
D25*
X56337500Y-78750000D03*
X56337500Y-79250000D03*
D24*
X57062500Y-79250000D03*
%TD*%
D19*
%TO.C,U3*%
X103775000Y-56835000D03*
X103775000Y-58735000D03*
X105775000Y-57785000D03*
%TD*%
D26*
%TO.C,U4*%
X107070001Y-61470003D03*
X107070001Y-62420003D03*
X107070001Y-63370003D03*
X109270001Y-63370003D03*
X109270001Y-62420003D03*
X109270001Y-61470003D03*
%TD*%
D18*
%TO.C,R3*%
X108189320Y-56751612D03*
X108189320Y-54701612D03*
%TD*%
M02*
