M48
; DRILL file {KiCad (6.0.7)} date 2022年09月28日 星期三 21时23分57秒
; FORMAT={-:-/ absolute / inch / decimal}
; #@! TF.CreationDate,2022-09-28T21:23:57+08:00
; #@! TF.GenerationSoftware,Kicad,Pcbnew,(6.0.7)
; #@! TF.FileFunction,Plated,1,2,PTH
FMAT,2
INCH
; #@! TA.AperFunction,Plated,PTH,ComponentDrill
T1C0.0079
; #@! TA.AperFunction,Plated,PTH,ViaDrill
T2C0.0157
; #@! TA.AperFunction,Plated,PTH,ComponentDrill
T3C0.0197
; #@! TA.AperFunction,Plated,PTH,ComponentDrill
T4C0.0236
; #@! TA.AperFunction,Plated,PTH,ComponentDrill
T5C0.0354
%
G90
G05
T1
X2.2904Y-2.9203
X2.2904Y-2.966
X2.2904Y-3.0118
X2.2904Y-3.0576
X2.2904Y-3.1033
X2.3361Y-2.9203
X2.3361Y-2.966
X2.3361Y-3.0118
X2.3361Y-3.0576
X2.3361Y-3.1033
X2.3819Y-2.9203
X2.3819Y-2.966
X2.3819Y-3.0118
X2.3819Y-3.0576
X2.3819Y-3.1033
X2.4277Y-2.9203
X2.4277Y-2.966
X2.4277Y-3.0118
X2.4277Y-3.0576
X2.4277Y-3.1033
X2.4734Y-2.9203
X2.4734Y-2.966
X2.4734Y-3.0118
X2.4734Y-3.0576
X2.4734Y-3.1033
T2
X0.7717Y-1.8189
X0.7874Y-2.4843
X0.8071Y-3.1378
X1.4093Y-3.0598
X1.425Y-3.15
X1.4882Y-1.3386
X1.5079Y-1.9961
X1.5315Y-2.6772
X1.5551Y-2.9646
X1.8939Y-3.0549
X1.9764Y-3.0491
X2.2282Y-2.6506
X2.2559Y-2.4213
X2.6323Y-3.3949
X2.6898Y-3.3492
X2.7256Y-3.1799
X2.7273Y-2.9515
X2.7736Y-2.8291
X2.9374Y-2.9618
X2.9843Y-2.6299
X3.15Y-3.475
X3.85Y-3.7
X4.025Y-1.7
X4.025Y-1.825
X4.0378Y-1.8881
X4.0856Y-2.2376
X4.1Y-2.8
X4.1Y-2.875
X4.1352Y-2.5574
X4.174Y-1.9094
X4.191Y-2.4587
X4.2232Y-2.4988
X4.225Y-1.85
X4.2503Y-2.4058
X4.2744Y-2.4949
X4.2823Y-2.6484
X4.325Y-2.325
X4.325Y-3.25
X4.3487Y-2.455
T3
X2.0866Y-2.7953
X2.0866Y-2.8346
X2.0866Y-2.874
X2.0866Y-2.9134
X2.0866Y-2.9528
X2.0866Y-2.9921
X2.0866Y-3.0315
X2.0866Y-3.0709
X2.0866Y-3.1102
X2.0866Y-3.1496
X2.0866Y-3.189
X2.0866Y-3.2283
X2.1654Y-2.7165
X2.1654Y-3.3071
X2.2047Y-2.7165
X2.2047Y-3.3071
X2.2441Y-2.7165
X2.2441Y-3.3071
X2.2835Y-2.7165
X2.2835Y-3.3071
X2.3228Y-2.7165
X2.3228Y-3.3071
X2.3622Y-2.7165
X2.3622Y-3.3071
X2.4016Y-2.7165
X2.4016Y-3.3071
X2.4409Y-2.7165
X2.4409Y-3.3071
X2.4803Y-2.7165
X2.4803Y-3.3071
X2.5197Y-2.7165
X2.5197Y-3.3071
X2.5591Y-2.7165
X2.5591Y-3.3071
X2.5984Y-2.7165
X2.5984Y-3.3071
X2.6772Y-2.7953
X2.6772Y-2.8346
X2.6772Y-2.874
X2.6772Y-2.9134
X2.6772Y-2.9528
X2.6772Y-2.9921
X2.6772Y-3.0315
X2.6772Y-3.0709
X2.6772Y-3.1102
X2.6772Y-3.1496
X2.6772Y-3.189
X2.6772Y-3.2283
T3
G00X0.6575Y-1.4173
M15
G01X0.6575Y-1.437
M16
G05
G00X0.6575Y-2.0866
M15
G01X0.6575Y-2.1063
M16
G05
G00X0.6575Y-2.7559
M15
G01X0.6575Y-2.7756
M16
G05
G00X0.6969Y-1.8051
M15
G01X0.6969Y-1.8248
M16
G05
G00X0.6969Y-2.4744
M15
G01X0.6969Y-2.4941
M16
G05
G00X0.6969Y-3.1437
M15
G01X0.6969Y-3.1634
M16
G05
G00X0.9449Y-1.8268
M15
G01X0.9646Y-1.8268
M16
G05
G00X0.9449Y-2.4961
M15
G01X0.9646Y-2.4961
M16
G05
G00X0.9449Y-3.1654
M15
G01X0.9646Y-3.1654
M16
G05
G00X1.0748Y-1.4173
M15
G01X1.0748Y-1.437
M16
G05
G00X1.0748Y-2.0866
M15
G01X1.0748Y-2.1063
M16
G05
G00X1.0748Y-2.7559
M15
G01X1.0748Y-2.7756
M16
G05
G00X1.3661Y-0.9449
M15
G01X1.3661Y-0.9646
M16
G05
G00X1.3661Y-1.6142
M15
G01X1.3661Y-1.6339
M16
G05
G00X1.3661Y-2.2835
M15
G01X1.3661Y-2.3031
M16
G05
G00X1.4055Y-1.3327
M15
G01X1.4055Y-1.3524
M16
G05
G00X1.4055Y-2.002
M15
G01X1.4055Y-2.0217
M16
G05
G00X1.4055Y-2.6713
M15
G01X1.4055Y-2.6909
M16
G05
G00X1.6535Y-1.3543
M15
G01X1.6732Y-1.3543
M16
G05
G00X1.6535Y-2.0236
M15
G01X1.6732Y-2.0236
M16
G05
G00X1.6535Y-2.6929
M15
G01X1.6732Y-2.6929
M16
G05
G00X1.7835Y-0.9449
M15
G01X1.7835Y-0.9646
M16
G05
G00X1.7835Y-1.6142
M15
G01X1.7835Y-1.6339
M16
G05
G00X1.7835Y-2.2835
M15
G01X1.7835Y-2.3031
M16
G05
G00X2.0748Y-0.6693
M15
G01X2.0748Y-0.689
M16
G05
G00X2.0748Y-1.3386
M15
G01X2.0748Y-1.3583
M16
G05
G00X2.0748Y-2.0079
M15
G01X2.0748Y-2.0276
M16
G05
G00X2.1142Y-1.0571
M15
G01X2.1142Y-1.0768
M16
G05
G00X2.1142Y-1.7264
M15
G01X2.1142Y-1.7461
M16
G05
G00X2.1142Y-2.3957
M15
G01X2.1142Y-2.4154
M16
G05
G00X2.3622Y-1.0787
M15
G01X2.3819Y-1.0787
M16
G05
G00X2.3622Y-1.748
M15
G01X2.3819Y-1.748
M16
G05
G00X2.3622Y-2.4173
M15
G01X2.3819Y-2.4173
M16
G05
G00X2.4921Y-0.6693
M15
G01X2.4921Y-0.689
M16
G05
G00X2.4921Y-1.3386
M15
G01X2.4921Y-1.3583
M16
G05
G00X2.4921Y-2.0079
M15
G01X2.4921Y-2.0276
M16
G05
G00X2.7835Y-0.8858
M15
G01X2.7835Y-0.9055
M16
G05
G00X2.7835Y-1.5551
M15
G01X2.7835Y-1.5748
M16
G05
G00X2.7835Y-2.2244
M15
G01X2.7835Y-2.2441
M16
G05
G00X2.8228Y-1.2736
M15
G01X2.8228Y-1.2933
M16
G05
G00X2.8228Y-1.9429
M15
G01X2.8228Y-1.9626
M16
G05
G00X2.8228Y-2.6122
M15
G01X2.8228Y-2.6319
M16
G05
G00X3.0621Y-3.4156
M15
G01X3.057Y-3.4346
M16
G05
G00X3.0709Y-1.2953
M15
G01X3.0906Y-1.2953
M16
G05
G00X3.0709Y-1.9646
M15
G01X3.0906Y-1.9646
M16
G05
G00X3.0709Y-2.6339
M15
G01X3.0906Y-2.6339
M16
G05
G00X3.1244Y-3.0309
M15
G01X3.1193Y-3.0499
M16
G05
G00X3.2008Y-0.8858
M15
G01X3.2008Y-0.9055
M16
G05
G00X3.2008Y-1.5551
M15
G01X3.2008Y-1.5748
M16
G05
G00X3.2008Y-2.2244
M15
G01X3.2008Y-2.2441
M16
G05
G00X3.296Y-3.5007
M15
G01X3.315Y-3.5058
M16
G05
G00X3.4921Y-0.9843
M15
G01X3.4921Y-1.0039
M16
G05
G00X3.4921Y-1.6535
M15
G01X3.4921Y-1.6732
M16
G05
G00X3.4921Y-2.3228
M15
G01X3.4921Y-2.3425
M16
G05
G00X3.5275Y-3.1389
M15
G01X3.5224Y-3.1579
M16
G05
G00X3.5315Y-1.372
M15
G01X3.5315Y-1.3917
M16
G05
G00X3.5315Y-2.0413
M15
G01X3.5315Y-2.061
M16
G05
G00X3.5315Y-2.7106
M15
G01X3.5315Y-2.7303
M16
G05
G00X3.7689Y-3.6417
M15
G01X3.7606Y-3.6596
M16
G05
G00X3.7795Y-1.3937
M15
G01X3.7992Y-1.3937
M16
G05
G00X3.7795Y-2.063
M15
G01X3.7992Y-2.063
M16
G05
G00X3.7795Y-2.7323
M15
G01X3.7992Y-2.7323
M16
G05
G00X3.8972Y-3.2736
M15
G01X3.8888Y-3.2915
M16
G05
G00X3.9094Y-0.9843
M15
G01X3.9094Y-1.0039
M16
G05
G00X3.9094Y-1.6535
M15
G01X3.9094Y-1.6732
M16
G05
G00X3.9094Y-2.3228
M15
G01X3.9094Y-2.3425
M16
G05
G00X3.9846Y-3.7662
M15
G01X4.0024Y-3.7745
M16
G05
G00X4.2754Y-3.45
M15
G01X4.2671Y-3.4678
M16
G05
T4
G00X4.1301Y-1.7299
M15
G01X4.1734Y-1.7299
M16
G05
G00X4.1301Y-2.0701
M15
G01X4.1734Y-2.0701
M16
G05
G00X4.3045Y-1.7299
M15
G01X4.3281Y-1.7299
M16
G05
G00X4.3045Y-2.0701
M15
G01X4.3281Y-2.0701
M16
G05
T5
G00X3.9643Y-2.9094
M15
G01X3.9485Y-2.9094
M16
G05
G00X4.0076Y-3.0906
M15
G01X3.9918Y-3.0906
M16
G05
G00X4.1651Y-3.0906
M15
G01X4.1493Y-3.0906
M16
G05
G00X4.2832Y-3.0906
M15
G01X4.2674Y-3.0906
M16
G05
T0
M30
