%TF.GenerationSoftware,KiCad,Pcbnew,(6.0.7)*%
%TF.CreationDate,2022-09-28T21:23:56+08:00*%
%TF.ProjectId,ferris_left,66657272-6973-45f6-9c65-66742e6b6963,rev?*%
%TF.SameCoordinates,Original*%
%TF.FileFunction,Profile,NP*%
%FSLAX46Y46*%
G04 Gerber Fmt 4.6, Leading zero omitted, Abs format (unit mm)*
G04 Created by KiCad (PCBNEW (6.0.7)) date 2022-09-28 21:23:56*
%MOMM*%
%LPD*%
G01*
G04 APERTURE LIST*
%TA.AperFunction,Profile*%
%ADD10C,0.050000*%
%TD*%
%TA.AperFunction,Profile*%
%ADD11C,0.120000*%
%TD*%
G04 APERTURE END LIST*
D10*
X13649989Y-81147212D02*
G75*
G03*
X15710000Y-83077536I2000011J70012D01*
G01*
X111125000Y-90170000D02*
G75*
G03*
X112395000Y-84314238I-9835190J5198660D01*
G01*
X111125000Y-90170000D02*
X107315000Y-100330000D01*
X104775017Y-100964971D02*
G75*
G03*
X107315000Y-100330000I943183J1624771D01*
G01*
X104162501Y-39885000D02*
X111102500Y-41395000D01*
X112712566Y-42985257D02*
G75*
G03*
X111102500Y-41395000I-2140766J-557243D01*
G01*
X102869996Y-38735001D02*
G75*
G03*
X104162501Y-39885000I1519804J406801D01*
G01*
X13608055Y-31898702D02*
X13650019Y-81147211D01*
X104775003Y-100964994D02*
G75*
G03*
X83820000Y-92710000I-46948103J-88451806D01*
G01*
X83820000Y-92710000D02*
G75*
G03*
X15710000Y-83077536I-68533690J-238978460D01*
G01*
X60008389Y-13128139D02*
G75*
G03*
X15035000Y-29885000I1J-68730001D01*
G01*
X64208637Y-13136374D02*
X60008389Y-13128139D01*
X102099983Y-22059419D02*
G75*
G03*
X101665245Y-21378889I-749983J19D01*
G01*
X101665245Y-21378889D02*
G75*
G03*
X64208637Y-13136374I-49402795J-135273371D01*
G01*
X15035000Y-29885000D02*
G75*
G03*
X13608055Y-31898702I2445000J-3245000D01*
G01*
X102100000Y-22059419D02*
X102870000Y-38735000D01*
X112712500Y-42985274D02*
X112395000Y-84314238D01*
D11*
%TO.C,K0_0*%
X16200000Y-43600000D02*
X16200000Y-38050000D01*
X24250000Y-44600000D02*
X24250000Y-43600000D01*
X19750000Y-43600000D02*
X16200000Y-43600000D01*
X16200000Y-38050000D02*
X27800000Y-38050000D01*
X27800000Y-38050000D02*
X27800000Y-43600000D01*
X19750000Y-43600000D02*
X19750000Y-44600000D01*
X19750000Y-44600000D02*
X24250000Y-44600000D01*
X24250000Y-43600000D02*
X27800000Y-43600000D01*
%TO.C,K1_3*%
X73750000Y-48100000D02*
X78250000Y-48100000D01*
X78250000Y-48100000D02*
X78250000Y-47100000D01*
X70200000Y-41550000D02*
X81800000Y-41550000D01*
X73750000Y-47100000D02*
X73750000Y-48100000D01*
X70200000Y-47100000D02*
X70200000Y-41550000D01*
X73750000Y-47100000D02*
X70200000Y-47100000D01*
X78250000Y-47100000D02*
X81800000Y-47100000D01*
X81800000Y-41550000D02*
X81800000Y-47100000D01*
%TO.C,K0_1*%
X34200000Y-26050000D02*
X45800000Y-26050000D01*
X42250000Y-32600000D02*
X42250000Y-31600000D01*
X34200000Y-31600000D02*
X34200000Y-26050000D01*
X42250000Y-31600000D02*
X45800000Y-31600000D01*
X37750000Y-31600000D02*
X37750000Y-32600000D01*
X45800000Y-26050000D02*
X45800000Y-31600000D01*
X37750000Y-31600000D02*
X34200000Y-31600000D01*
X37750000Y-32600000D02*
X42250000Y-32600000D01*
%TO.C,K2_4*%
X99800000Y-61050000D02*
X99800000Y-66600000D01*
X91750000Y-67600000D02*
X96250000Y-67600000D01*
X91750000Y-66600000D02*
X88200000Y-66600000D01*
X96250000Y-66600000D02*
X99800000Y-66600000D01*
X88200000Y-61050000D02*
X99800000Y-61050000D01*
X88200000Y-66600000D02*
X88200000Y-61050000D01*
X96250000Y-67600000D02*
X96250000Y-66600000D01*
X91750000Y-66600000D02*
X91750000Y-67600000D01*
%TO.C,K0_3*%
X73750000Y-30100000D02*
X73750000Y-31100000D01*
X70200000Y-24550000D02*
X81800000Y-24550000D01*
X70200000Y-30100000D02*
X70200000Y-24550000D01*
X78250000Y-30100000D02*
X81800000Y-30100000D01*
X78250000Y-31100000D02*
X78250000Y-30100000D01*
X81800000Y-24550000D02*
X81800000Y-30100000D01*
X73750000Y-30100000D02*
X70200000Y-30100000D01*
X73750000Y-31100000D02*
X78250000Y-31100000D01*
%TO.C,K2_0*%
X27800000Y-72050000D02*
X27800000Y-77600000D01*
X16200000Y-72050000D02*
X27800000Y-72050000D01*
X19750000Y-78600000D02*
X24250000Y-78600000D01*
X19750000Y-77600000D02*
X16200000Y-77600000D01*
X19750000Y-77600000D02*
X19750000Y-78600000D01*
X16200000Y-77600000D02*
X16200000Y-72050000D01*
X24250000Y-78600000D02*
X24250000Y-77600000D01*
X24250000Y-77600000D02*
X27800000Y-77600000D01*
%TO.C,K2_3*%
X73750000Y-64100000D02*
X70200000Y-64100000D01*
X78250000Y-65100000D02*
X78250000Y-64100000D01*
X70200000Y-58550000D02*
X81800000Y-58550000D01*
X78250000Y-64100000D02*
X81800000Y-64100000D01*
X81800000Y-58550000D02*
X81800000Y-64100000D01*
X73750000Y-64100000D02*
X73750000Y-65100000D01*
X70200000Y-64100000D02*
X70200000Y-58550000D01*
X73750000Y-65100000D02*
X78250000Y-65100000D01*
%TO.C,K0_4*%
X96250000Y-33600000D02*
X96250000Y-32600000D01*
X91750000Y-32600000D02*
X91750000Y-33600000D01*
X91750000Y-32600000D02*
X88200000Y-32600000D01*
X88200000Y-32600000D02*
X88200000Y-27050000D01*
X91750000Y-33600000D02*
X96250000Y-33600000D01*
X96250000Y-32600000D02*
X99800000Y-32600000D01*
X88200000Y-27050000D02*
X99800000Y-27050000D01*
X99800000Y-27050000D02*
X99800000Y-32600000D01*
%TO.C,K1_0*%
X16200000Y-60600000D02*
X16200000Y-55050000D01*
X19750000Y-60600000D02*
X19750000Y-61600000D01*
X27800000Y-55050000D02*
X27800000Y-60600000D01*
X24250000Y-61600000D02*
X24250000Y-60600000D01*
X16200000Y-55050000D02*
X27800000Y-55050000D01*
X19750000Y-60600000D02*
X16200000Y-60600000D01*
X24250000Y-60600000D02*
X27800000Y-60600000D01*
X19750000Y-61600000D02*
X24250000Y-61600000D01*
%TO.C,K0_2*%
X63800000Y-19050000D02*
X63800000Y-24600000D01*
X52200000Y-24600000D02*
X52200000Y-19050000D01*
X55750000Y-25600000D02*
X60250000Y-25600000D01*
X60250000Y-25600000D02*
X60250000Y-24600000D01*
X55750000Y-24600000D02*
X55750000Y-25600000D01*
X55750000Y-24600000D02*
X52200000Y-24600000D01*
X60250000Y-24600000D02*
X63800000Y-24600000D01*
X52200000Y-19050000D02*
X63800000Y-19050000D01*
%TO.C,K3_4*%
X98539994Y-91327374D02*
X95322601Y-89827079D01*
X97668133Y-84797071D02*
X108181303Y-89699443D01*
X108181303Y-89699443D02*
X105835772Y-94729451D01*
X98117376Y-92233682D02*
X102195761Y-94135464D01*
X102195761Y-94135464D02*
X102618379Y-93229156D01*
X95322601Y-89827079D02*
X97668133Y-84797071D01*
X98539994Y-91327374D02*
X98117376Y-92233682D01*
X102618379Y-93229156D02*
X105835772Y-94729451D01*
%TO.C,K1_1*%
X42250000Y-48600000D02*
X45800000Y-48600000D01*
X42250000Y-49600000D02*
X42250000Y-48600000D01*
X34200000Y-48600000D02*
X34200000Y-43050000D01*
X37750000Y-48600000D02*
X37750000Y-49600000D01*
X34200000Y-43050000D02*
X45800000Y-43050000D01*
X37750000Y-49600000D02*
X42250000Y-49600000D01*
X45800000Y-43050000D02*
X45800000Y-48600000D01*
X37750000Y-48600000D02*
X34200000Y-48600000D01*
%TO.C,K1_2*%
X60250000Y-41600000D02*
X63800000Y-41600000D01*
X55750000Y-42600000D02*
X60250000Y-42600000D01*
X60250000Y-42600000D02*
X60250000Y-41600000D01*
X52200000Y-41600000D02*
X52200000Y-36050000D01*
X55750000Y-41600000D02*
X55750000Y-42600000D01*
X52200000Y-36050000D02*
X63800000Y-36050000D01*
X55750000Y-41600000D02*
X52200000Y-41600000D01*
X63800000Y-36050000D02*
X63800000Y-41600000D01*
%TO.C,K2_1*%
X34200000Y-65600000D02*
X34200000Y-60050000D01*
X45800000Y-60050000D02*
X45800000Y-65600000D01*
X34200000Y-60050000D02*
X45800000Y-60050000D01*
X37750000Y-66600000D02*
X42250000Y-66600000D01*
X42250000Y-66600000D02*
X42250000Y-65600000D01*
X37750000Y-65600000D02*
X34200000Y-65600000D01*
X37750000Y-65600000D02*
X37750000Y-66600000D01*
X42250000Y-65600000D02*
X45800000Y-65600000D01*
%TO.C,K1_4*%
X91750000Y-50600000D02*
X96250000Y-50600000D01*
X96250000Y-50600000D02*
X96250000Y-49600000D01*
X88200000Y-49600000D02*
X88200000Y-44050000D01*
X88200000Y-44050000D02*
X99800000Y-44050000D01*
X96250000Y-49600000D02*
X99800000Y-49600000D01*
X91750000Y-49600000D02*
X88200000Y-49600000D01*
X99800000Y-44050000D02*
X99800000Y-49600000D01*
X91750000Y-49600000D02*
X91750000Y-50600000D01*
%TO.C,K3_3*%
X80079918Y-86079990D02*
X84426585Y-87244676D01*
X89550886Y-81836669D02*
X88114440Y-87197558D01*
X76909701Y-84195257D02*
X78346146Y-78834368D01*
X84426585Y-87244676D02*
X84685404Y-86278750D01*
X80338737Y-85114064D02*
X76909701Y-84195257D01*
X80338737Y-85114064D02*
X80079918Y-86079990D01*
X84685404Y-86278750D02*
X88114440Y-87197558D01*
X78346146Y-78834368D02*
X89550886Y-81836669D01*
%TO.C,K2_2*%
X52200000Y-53050000D02*
X63800000Y-53050000D01*
X63800000Y-53050000D02*
X63800000Y-58600000D01*
X60250000Y-58600000D02*
X63800000Y-58600000D01*
X55750000Y-58600000D02*
X55750000Y-59600000D01*
X55750000Y-58600000D02*
X52200000Y-58600000D01*
X55750000Y-59600000D02*
X60250000Y-59600000D01*
X60250000Y-59600000D02*
X60250000Y-58600000D01*
X52200000Y-58600000D02*
X52200000Y-53050000D01*
%TD*%
M02*
