%TF.GenerationSoftware,KiCad,Pcbnew,(6.0.7)*%
%TF.CreationDate,2022-09-28T21:23:56+08:00*%
%TF.ProjectId,ferris_left,66657272-6973-45f6-9c65-66742e6b6963,rev?*%
%TF.SameCoordinates,Original*%
%TF.FileFunction,Legend,Top*%
%TF.FilePolarity,Positive*%
%FSLAX46Y46*%
G04 Gerber Fmt 4.6, Leading zero omitted, Abs format (unit mm)*
G04 Created by KiCad (PCBNEW (6.0.7)) date 2022-09-28 21:23:56*
%MOMM*%
%LPD*%
G01*
G04 APERTURE LIST*
%ADD10C,0.120000*%
%ADD11C,0.150000*%
G04 APERTURE END LIST*
D10*
%TO.C,R1*%
X105408456Y-54101285D02*
X104885952Y-54101285D01*
X105408456Y-55521285D02*
X104885952Y-55521285D01*
%TO.C,D2_1*%
X37750000Y-57650000D02*
X41650000Y-57650000D01*
X37750000Y-59650000D02*
X41650000Y-59650000D01*
X37750000Y-57650000D02*
X37750000Y-59650000D01*
%TO.C,D1_0*%
X19750000Y-52650000D02*
X19750000Y-54650000D01*
X19750000Y-52650000D02*
X23650000Y-52650000D01*
X19750000Y-54650000D02*
X23650000Y-54650000D01*
%TO.C,D2_4*%
X91750000Y-60650000D02*
X95650000Y-60650000D01*
X91750000Y-58650000D02*
X95650000Y-58650000D01*
X91750000Y-58650000D02*
X91750000Y-60650000D01*
%TO.C,D2_0*%
X19750000Y-71650000D02*
X23650000Y-71650000D01*
X19750000Y-69650000D02*
X23650000Y-69650000D01*
X19750000Y-69650000D02*
X19750000Y-71650000D01*
%TO.C,D0_2*%
X55750000Y-16650000D02*
X55750000Y-18650000D01*
X55750000Y-16650000D02*
X59650000Y-16650000D01*
X55750000Y-18650000D02*
X59650000Y-18650000D01*
%TO.C,J1*%
X110585000Y-52960000D02*
X112485000Y-52960000D01*
X106685000Y-43560000D02*
X108685000Y-43560000D01*
X106685000Y-52960000D02*
X108685000Y-52960000D01*
X110585000Y-43560000D02*
X112485000Y-43560000D01*
X112485000Y-52960000D02*
X112485000Y-43560000D01*
%TO.C,D1_1*%
X37750000Y-40650000D02*
X37750000Y-42650000D01*
X37750000Y-40650000D02*
X41650000Y-40650000D01*
X37750000Y-42650000D02*
X41650000Y-42650000D01*
%TO.C,D0_3*%
X73750000Y-22150000D02*
X73750000Y-24150000D01*
X73750000Y-22150000D02*
X77650000Y-22150000D01*
X73750000Y-24150000D02*
X77650000Y-24150000D01*
%TO.C,D3_4*%
X101056323Y-86012196D02*
X104590924Y-87660407D01*
X101901560Y-84199580D02*
X105436160Y-85847791D01*
X101901560Y-84199580D02*
X101056323Y-86012196D01*
%TO.C,D2_2*%
X55750000Y-52800000D02*
X59650000Y-52800000D01*
X55750000Y-50800000D02*
X59650000Y-50800000D01*
X55750000Y-50800000D02*
X55750000Y-52800000D01*
%TO.C,D3_3*%
X82450487Y-77506730D02*
X81932849Y-79438582D01*
X82450487Y-77506730D02*
X86217598Y-78516125D01*
X81932849Y-79438582D02*
X85699960Y-80447976D01*
%TO.C,D1_3*%
X73750000Y-40900000D02*
X77650000Y-40900000D01*
X73750000Y-38900000D02*
X77650000Y-38900000D01*
X73750000Y-38900000D02*
X73750000Y-40900000D01*
%TO.C,D1_2*%
X55750000Y-35650000D02*
X59650000Y-35650000D01*
X55750000Y-33650000D02*
X55750000Y-35650000D01*
X55750000Y-33650000D02*
X59650000Y-33650000D01*
%TO.C,R2*%
X108323748Y-59765000D02*
X108846252Y-59765000D01*
X108323748Y-58345000D02*
X108846252Y-58345000D01*
%TO.C,D0_0*%
X19750000Y-37650000D02*
X23650000Y-37650000D01*
X19750000Y-35650000D02*
X23650000Y-35650000D01*
X19750000Y-35650000D02*
X19750000Y-37650000D01*
%TO.C,D1_4*%
X91750000Y-41650000D02*
X91750000Y-43650000D01*
X91750000Y-41650000D02*
X95650000Y-41650000D01*
X91750000Y-43650000D02*
X95650000Y-43650000D01*
%TO.C,D0_4*%
X91750000Y-24650000D02*
X91750000Y-26650000D01*
X91750000Y-26650000D02*
X95650000Y-26650000D01*
X91750000Y-24650000D02*
X95650000Y-24650000D01*
%TO.C,D0_1*%
X37750000Y-23650000D02*
X37750000Y-25650000D01*
X37750000Y-25650000D02*
X41650000Y-25650000D01*
X37750000Y-23650000D02*
X41650000Y-23650000D01*
%TO.C,D2_3*%
X73750000Y-58150000D02*
X77650000Y-58150000D01*
X73750000Y-56150000D02*
X77650000Y-56150000D01*
X73750000Y-56150000D02*
X73750000Y-58150000D01*
D11*
%TO.C,Jack0*%
X111792500Y-79000000D02*
X113792500Y-79000000D01*
X111792500Y-79250000D02*
X111792500Y-73150000D01*
X111792500Y-73150000D02*
X99692500Y-73150000D01*
X111792500Y-79250000D02*
X99692500Y-79250000D01*
X113792500Y-79000000D02*
X113792500Y-73400000D01*
X111792500Y-73400000D02*
X113792500Y-73400000D01*
X99692500Y-79250000D02*
X99692500Y-73150000D01*
D10*
%TO.C,F1*%
X108772065Y-64760003D02*
X107567937Y-64760003D01*
X108772065Y-66580003D02*
X107567937Y-66580003D01*
%TO.C,C1*%
X111106873Y-55987864D02*
X111106873Y-55465360D01*
X109686873Y-55987864D02*
X109686873Y-55465360D01*
%TO.C,C2*%
X96893748Y-74220000D02*
X97416252Y-74220000D01*
X96893748Y-75640000D02*
X97416252Y-75640000D01*
%TO.C,C3*%
X40761252Y-76540000D02*
X40238748Y-76540000D01*
X40761252Y-77960000D02*
X40238748Y-77960000D01*
%TO.C,C4*%
X40761252Y-80540000D02*
X40238748Y-80540000D01*
X40761252Y-81960000D02*
X40238748Y-81960000D01*
%TO.C,C5*%
X54761252Y-65790000D02*
X54238748Y-65790000D01*
X54761252Y-67210000D02*
X54238748Y-67210000D01*
%TO.C,C6*%
X58238748Y-65790000D02*
X58761252Y-65790000D01*
X58238748Y-67210000D02*
X58761252Y-67210000D01*
%TO.C,C7*%
X71738748Y-80040000D02*
X72261252Y-80040000D01*
X71738748Y-81460000D02*
X72261252Y-81460000D01*
%TO.C,C8*%
X71738748Y-83710000D02*
X72261252Y-83710000D01*
X71738748Y-82290000D02*
X72261252Y-82290000D01*
%TO.C,C9*%
X40238748Y-78540000D02*
X40761252Y-78540000D01*
X40238748Y-79960000D02*
X40761252Y-79960000D01*
%TO.C,C10*%
X72261252Y-76790000D02*
X71738748Y-76790000D01*
X72261252Y-78210000D02*
X71738748Y-78210000D01*
%TO.C,C11*%
X72261252Y-75960000D02*
X71738748Y-75960000D01*
X72261252Y-74540000D02*
X71738748Y-74540000D01*
%TO.C,D1*%
X110420001Y-69170003D02*
X110420001Y-67170003D01*
X110420001Y-69170003D02*
X106520001Y-69170003D01*
X110420001Y-67170003D02*
X106520001Y-67170003D01*
%TO.C,D2*%
X110420001Y-71670003D02*
X110420001Y-69670003D01*
X110420001Y-69670003D02*
X106520001Y-69670003D01*
X110420001Y-71670003D02*
X106520001Y-71670003D01*
%TO.C,D3*%
X42750000Y-75750000D02*
X46650000Y-75750000D01*
X42750000Y-77750000D02*
X46650000Y-77750000D01*
X42750000Y-75750000D02*
X42750000Y-77750000D01*
%TO.C,Q1*%
X45760000Y-78420000D02*
X43600000Y-78420000D01*
X45760000Y-81580000D02*
X45760000Y-80650000D01*
X45760000Y-78420000D02*
X45760000Y-79350000D01*
X45760000Y-81580000D02*
X44300000Y-81580000D01*
%TO.C,R4*%
X108323748Y-79935000D02*
X108846252Y-79935000D01*
X108323748Y-81355000D02*
X108846252Y-81355000D01*
%TO.C,R5*%
X40761252Y-75960000D02*
X40238748Y-75960000D01*
X40761252Y-74540000D02*
X40238748Y-74540000D01*
%TO.C,SW1*%
X35095000Y-77725000D02*
X34795000Y-77725000D01*
X34795000Y-81025000D02*
X35095000Y-81025000D01*
X34795000Y-77725000D02*
X34795000Y-81025000D01*
X37295000Y-77725000D02*
X37595000Y-77725000D01*
X37595000Y-77725000D02*
X37595000Y-81025000D01*
X37595000Y-81025000D02*
X37295000Y-81025000D01*
%TO.C,U1*%
X64110000Y-72890000D02*
X63635000Y-72890000D01*
X64110000Y-72890000D02*
X63660000Y-72890000D01*
X64110000Y-79660000D02*
X64110000Y-80110000D01*
X56890000Y-79660000D02*
X56890000Y-80110000D01*
X64110000Y-80110000D02*
X63635000Y-80110000D01*
X56890000Y-73340000D02*
X56890000Y-72890000D01*
X64110000Y-80110000D02*
X63660000Y-80110000D01*
X56890000Y-73365000D02*
X56890000Y-72890000D01*
X57340000Y-80110000D02*
X57340000Y-81400000D01*
X64110000Y-73365000D02*
X64110000Y-72890000D01*
X56890000Y-80110000D02*
X57340000Y-80110000D01*
X56890000Y-79635000D02*
X56890000Y-80110000D01*
X64110000Y-79635000D02*
X64110000Y-80110000D01*
X56890000Y-72890000D02*
X57365000Y-72890000D01*
X56890000Y-72890000D02*
X57340000Y-72890000D01*
X64110000Y-73340000D02*
X64110000Y-72890000D01*
%TO.C,U3*%
X105535000Y-56205000D02*
X105535000Y-57135000D01*
X105535000Y-56205000D02*
X103375000Y-56205000D01*
X105535000Y-59365000D02*
X105535000Y-58435000D01*
X105535000Y-59365000D02*
X104075000Y-59365000D01*
%TO.C,U4*%
X107270001Y-64030003D02*
X109070001Y-64030003D01*
X109070001Y-60810003D02*
X106620001Y-60810003D01*
%TO.C,R3*%
X107479320Y-55987864D02*
X107479320Y-55465360D01*
X108899320Y-55987864D02*
X108899320Y-55465360D01*
%TD*%
M02*
