%TF.GenerationSoftware,KiCad,Pcbnew,(6.0.7)*%
%TF.CreationDate,2022-09-28T21:23:56+08:00*%
%TF.ProjectId,ferris_left,66657272-6973-45f6-9c65-66742e6b6963,rev?*%
%TF.SameCoordinates,Original*%
%TF.FileFunction,Soldermask,Bot*%
%TF.FilePolarity,Negative*%
%FSLAX46Y46*%
G04 Gerber Fmt 4.6, Leading zero omitted, Abs format (unit mm)*
G04 Created by KiCad (PCBNEW (6.0.7)) date 2022-09-28 21:23:56*
%MOMM*%
%LPD*%
G01*
G04 APERTURE LIST*
G04 Aperture macros list*
%AMHorizOval*
0 Thick line with rounded ends*
0 $1 width*
0 $2 $3 position (X,Y) of the first rounded end (center of the circle)*
0 $4 $5 position (X,Y) of the second rounded end (center of the circle)*
0 Add line between two ends*
20,1,$1,$2,$3,$4,$5,0*
0 Add two circle primitives to create the rounded ends*
1,1,$1,$2,$3*
1,1,$1,$4,$5*%
G04 Aperture macros list end*
%ADD10O,1.600000X2.100000*%
%ADD11O,2.100000X1.600000*%
%ADD12C,0.750000*%
%ADD13O,1.700000X1.100000*%
%ADD14O,2.200000X1.100000*%
%ADD15HorizOval,1.600000X-0.105655X-0.226577X0.105655X0.226577X0*%
%ADD16HorizOval,1.600000X0.226577X-0.105655X-0.226577X0.105655X0*%
%ADD17C,0.900000*%
%ADD18O,2.100000X1.700000*%
%ADD19HorizOval,1.600000X-0.064705X-0.241481X0.064705X0.241481X0*%
%ADD20HorizOval,1.600000X0.241481X-0.064705X-0.241481X0.064705X0*%
%ADD21C,0.850000*%
G04 APERTURE END LIST*
D10*
%TO.C,K0_0*%
X17700000Y-46100000D03*
D11*
X24250000Y-46400000D03*
D10*
X27300000Y-36250000D03*
X16700000Y-36250000D03*
%TD*%
%TO.C,K1_3*%
X71700000Y-49600000D03*
D11*
X78250000Y-49900000D03*
D10*
X81300000Y-39750000D03*
X70700000Y-39750000D03*
%TD*%
D12*
%TO.C,J1*%
X105985000Y-45370000D03*
X105985000Y-51150000D03*
D13*
X109635000Y-52580000D03*
X109635000Y-43940000D03*
D14*
X105455000Y-43940000D03*
X105455000Y-52580000D03*
%TD*%
D10*
%TO.C,K0_1*%
X35700000Y-34100000D03*
D11*
X42250000Y-34400000D03*
D10*
X45300000Y-24250000D03*
X34700000Y-24250000D03*
%TD*%
%TO.C,K2_4*%
X89700000Y-69100000D03*
D11*
X96250000Y-69400000D03*
D10*
X99300000Y-59250000D03*
X88700000Y-59250000D03*
%TD*%
%TO.C,K0_3*%
X71700000Y-32600000D03*
D11*
X78250000Y-32900000D03*
D10*
X81300000Y-22750000D03*
X70700000Y-22750000D03*
%TD*%
%TO.C,K2_0*%
X17700000Y-80100000D03*
D11*
X24250000Y-80400000D03*
D10*
X27300000Y-70250000D03*
X16700000Y-70250000D03*
%TD*%
%TO.C,K2_3*%
X71700000Y-66600000D03*
D11*
X78250000Y-66900000D03*
D10*
X81300000Y-56750000D03*
X70700000Y-56750000D03*
%TD*%
%TO.C,K0_4*%
X89700000Y-35100000D03*
D11*
X96250000Y-35400000D03*
D10*
X99300000Y-25250000D03*
X88700000Y-25250000D03*
%TD*%
%TO.C,K1_0*%
X17700000Y-63100000D03*
D11*
X24250000Y-63400000D03*
D10*
X27300000Y-53250000D03*
X16700000Y-53250000D03*
%TD*%
%TO.C,K0_2*%
X53700000Y-27100000D03*
D11*
X60250000Y-27400000D03*
D10*
X63300000Y-17250000D03*
X52700000Y-17250000D03*
%TD*%
D15*
%TO.C,K3_4*%
X95625517Y-92726776D03*
D16*
X101435048Y-95766818D03*
D15*
X108488862Y-87856780D03*
X98881999Y-83377026D03*
%TD*%
D10*
%TO.C,K1_1*%
X35700000Y-51100000D03*
D11*
X42250000Y-51400000D03*
D10*
X45300000Y-41250000D03*
X34700000Y-41250000D03*
%TD*%
%TO.C,K1_2*%
X53700000Y-44100000D03*
D11*
X60250000Y-44400000D03*
D10*
X63300000Y-34250000D03*
X52700000Y-34250000D03*
%TD*%
%TO.C,K2_1*%
X35700000Y-68100000D03*
D11*
X42250000Y-68400000D03*
D10*
X45300000Y-58250000D03*
X34700000Y-58250000D03*
%TD*%
%TO.C,K1_4*%
X89700000Y-52100000D03*
D11*
X96250000Y-52400000D03*
D10*
X99300000Y-42250000D03*
X88700000Y-42250000D03*
%TD*%
D17*
%TO.C,Jack0*%
X110192500Y-76200000D03*
X103192500Y-76200000D03*
D18*
X105592500Y-78500000D03*
X108592500Y-78500000D03*
X100492500Y-73900000D03*
X101592500Y-78500000D03*
%TD*%
D19*
%TO.C,K3_3*%
X77711542Y-86998300D03*
D20*
X83960710Y-88983342D03*
D19*
X89533797Y-79968593D03*
X79294984Y-77225111D03*
%TD*%
D10*
%TO.C,K2_2*%
X53700000Y-61100000D03*
D11*
X60250000Y-61400000D03*
D10*
X63300000Y-51250000D03*
X52700000Y-51250000D03*
%TD*%
D21*
%TO.C,U1*%
X55000000Y-84000000D03*
X56000000Y-84000000D03*
X57000000Y-84000000D03*
X58000000Y-84000000D03*
X59000000Y-84000000D03*
X60000000Y-84000000D03*
X61000000Y-84000000D03*
X62000000Y-84000000D03*
X63000000Y-84000000D03*
X64000000Y-84000000D03*
X65000000Y-84000000D03*
X66000000Y-84000000D03*
X68000000Y-82000000D03*
X68000000Y-81000000D03*
X68000000Y-80000000D03*
X68000000Y-79000000D03*
X68000000Y-78000000D03*
X68000000Y-77000000D03*
X68000000Y-76000000D03*
X68000000Y-75000000D03*
X68000000Y-74000000D03*
X68000000Y-73000000D03*
X68000000Y-72000000D03*
X68000000Y-71000000D03*
X66000000Y-69000000D03*
X65000000Y-69000000D03*
X64000000Y-69000000D03*
X63000000Y-69000000D03*
X62000000Y-69000000D03*
X61000000Y-69000000D03*
X60000000Y-69000000D03*
X59000000Y-69000000D03*
X58000000Y-69000000D03*
X57000000Y-69000000D03*
X56000000Y-69000000D03*
X55000000Y-69000000D03*
X53000000Y-71000000D03*
X53000000Y-72000000D03*
X53000000Y-73000000D03*
X53000000Y-74000000D03*
X53000000Y-75000000D03*
X53000000Y-76000000D03*
X53000000Y-77000000D03*
X53000000Y-78000000D03*
X53000000Y-79000000D03*
X53000000Y-80000000D03*
X53000000Y-81000000D03*
X53000000Y-82000000D03*
%TD*%
M02*
