%TF.GenerationSoftware,KiCad,Pcbnew,(6.0.7)*%
%TF.CreationDate,2022-09-28T21:41:44+08:00*%
%TF.ProjectId,ferris_right,66657272-6973-45f7-9269-6768742e6b69,rev?*%
%TF.SameCoordinates,Original*%
%TF.FileFunction,Paste,Top*%
%TF.FilePolarity,Positive*%
%FSLAX46Y46*%
G04 Gerber Fmt 4.6, Leading zero omitted, Abs format (unit mm)*
G04 Created by KiCad (PCBNEW (6.0.7)) date 2022-09-28 21:41:44*
%MOMM*%
%LPD*%
G01*
G04 APERTURE LIST*
G04 Aperture macros list*
%AMRoundRect*
0 Rectangle with rounded corners*
0 $1 Rounding radius*
0 $2 $3 $4 $5 $6 $7 $8 $9 X,Y pos of 4 corners*
0 Add a 4 corners polygon primitive as box body*
4,1,4,$2,$3,$4,$5,$6,$7,$8,$9,$2,$3,0*
0 Add four circle primitives for the rounded corners*
1,1,$1+$1,$2,$3*
1,1,$1+$1,$4,$5*
1,1,$1+$1,$6,$7*
1,1,$1+$1,$8,$9*
0 Add four rect primitives between the rounded corners*
20,1,$1+$1,$2,$3,$4,$5,0*
20,1,$1+$1,$4,$5,$6,$7,0*
20,1,$1+$1,$6,$7,$8,$9,0*
20,1,$1+$1,$8,$9,$2,$3,0*%
%AMRotRect*
0 Rectangle, with rotation*
0 The origin of the aperture is its center*
0 $1 length*
0 $2 width*
0 $3 Rotation angle, in degrees counterclockwise*
0 Add horizontal line*
21,1,$1,$2,0,0,$3*%
G04 Aperture macros list end*
%ADD10R,0.900000X1.200000*%
%ADD11RotRect,0.900000X1.200000X25.000000*%
%ADD12RotRect,0.900000X1.200000X15.000000*%
%ADD13RoundRect,0.250000X-0.325000X-0.450000X0.325000X-0.450000X0.325000X0.450000X-0.325000X0.450000X0*%
%ADD14RoundRect,0.250000X0.450000X-0.325000X0.450000X0.325000X-0.450000X0.325000X-0.450000X-0.325000X0*%
%ADD15RoundRect,0.150000X-0.875000X-0.150000X0.875000X-0.150000X0.875000X0.150000X-0.875000X0.150000X0*%
%ADD16RoundRect,0.250000X0.325000X0.450000X-0.325000X0.450000X-0.325000X-0.450000X0.325000X-0.450000X0*%
%ADD17RoundRect,0.250000X-0.450000X0.325000X-0.450000X-0.325000X0.450000X-0.325000X0.450000X0.325000X0*%
G04 APERTURE END LIST*
D10*
%TO.C,D0_8*%
X194350000Y-24700000D03*
X197650000Y-24700000D03*
%TD*%
%TO.C,D0_7*%
X176350000Y-17700000D03*
X179650000Y-17700000D03*
%TD*%
%TO.C,D0_6*%
X158350000Y-23200000D03*
X161650000Y-23200000D03*
%TD*%
%TO.C,D0_9*%
X212350000Y-36600000D03*
X215650000Y-36600000D03*
%TD*%
%TO.C,D0_5*%
X140350000Y-25700000D03*
X143650000Y-25700000D03*
%TD*%
%TO.C,D1_5*%
X140350000Y-42700000D03*
X143650000Y-42700000D03*
%TD*%
%TO.C,D1_6*%
X158350000Y-40200000D03*
X161650000Y-40200000D03*
%TD*%
%TO.C,D1_7*%
X176350000Y-34700000D03*
X179650000Y-34700000D03*
%TD*%
%TO.C,D1_8*%
X194350000Y-41600000D03*
X197650000Y-41600000D03*
%TD*%
%TO.C,D1_9*%
X212350000Y-53700000D03*
X215650000Y-53700000D03*
%TD*%
%TO.C,D2_6*%
X158350000Y-57100000D03*
X161650000Y-57100000D03*
%TD*%
%TO.C,D2_9*%
X212350000Y-70600000D03*
X215650000Y-70600000D03*
%TD*%
%TO.C,D2_8*%
X194350000Y-58700000D03*
X197650000Y-58700000D03*
%TD*%
%TO.C,D2_5*%
X140350000Y-59700000D03*
X143650000Y-59700000D03*
%TD*%
%TO.C,D2_7*%
X176350000Y-51700000D03*
X179650000Y-51700000D03*
%TD*%
D11*
%TO.C,D3_5*%
X133490731Y-85642561D03*
X130499915Y-87037201D03*
%TD*%
D12*
%TO.C,D3_6*%
X152760304Y-78897004D03*
X149572748Y-79751106D03*
%TD*%
D13*
%TO.C,R7*%
X131200000Y-80645000D03*
X129150000Y-80645000D03*
%TD*%
D14*
%TO.C,C13*%
X130810000Y-71510000D03*
X130810000Y-69460000D03*
%TD*%
%TO.C,C12*%
X128270000Y-71510000D03*
X128270000Y-69460000D03*
%TD*%
D15*
%TO.C,U2*%
X183085000Y-66675000D03*
X183085000Y-67945000D03*
X183085000Y-69215000D03*
X183085000Y-70485000D03*
X183085000Y-71755000D03*
X183085000Y-73025000D03*
X183085000Y-74295000D03*
X183085000Y-75565000D03*
X183085000Y-76835000D03*
X183085000Y-78105000D03*
X183085000Y-79375000D03*
X183085000Y-80645000D03*
X183085000Y-81915000D03*
X183085000Y-83185000D03*
X173785000Y-83185000D03*
X173785000Y-81915000D03*
X173785000Y-80645000D03*
X173785000Y-79375000D03*
X173785000Y-78105000D03*
X173785000Y-76835000D03*
X173785000Y-75565000D03*
X173785000Y-74295000D03*
X173785000Y-73025000D03*
X173785000Y-71755000D03*
X173785000Y-70485000D03*
X173785000Y-69215000D03*
X173785000Y-67945000D03*
X173785000Y-66675000D03*
%TD*%
D16*
%TO.C,R6*%
X140090000Y-72390000D03*
X138040000Y-72390000D03*
%TD*%
D17*
%TO.C,R8*%
X125730000Y-71510000D03*
X125730000Y-69460000D03*
%TD*%
M02*
