M48
; DRILL file {KiCad (6.0.7)} date 2022年09月28日 星期三 21时42分16秒
; FORMAT={-:-/ absolute / inch / decimal}
; #@! TF.CreationDate,2022-09-28T21:42:16+08:00
; #@! TF.GenerationSoftware,Kicad,Pcbnew,(6.0.7)
; #@! TF.FileFunction,Plated,1,2,PTH
FMAT,2
INCH
; #@! TA.AperFunction,Plated,PTH,ViaDrill
T1C0.0157
; #@! TA.AperFunction,Plated,PTH,ComponentDrill
T2C0.0197
; #@! TA.AperFunction,Plated,PTH,ComponentDrill
T3C0.0354
%
G90
G05
T1
X5.2142Y-2.8163
X5.3469Y-0.9386
X5.8543Y-2.3346
X5.9Y-3.05
X6.437Y-2.2362
X6.6516Y-2.0734
X6.7Y-1.4041
X6.75Y-2.675
X6.75Y-2.725
X6.75Y-2.775
X6.925Y-2.625
X7.1457Y-2.0276
X7.2165Y-2.3976
X7.363Y-0.9116
X7.9409Y-2.6811
T2
G00X4.9941Y-3.4609
M15
G01X5.0024Y-3.4788
M16
G05
G00X5.1936Y-3.7957
M15
G01X5.202Y-3.8136
M16
G05
G00X5.3723Y-3.2845
M15
G01X5.3806Y-3.3024
M16
G05
G00X5.3819Y-0.9843
M15
G01X5.3819Y-1.0039
M16
G05
G00X5.3819Y-1.6535
M15
G01X5.3819Y-1.6732
M16
G05
G00X5.3819Y-2.3228
M15
G01X5.3819Y-2.3425
M16
G05
G00X5.4213Y-1.372
M15
G01X5.4213Y-1.3917
M16
G05
G00X5.4213Y-2.0413
M15
G01X5.4213Y-2.061
M16
G05
G00X5.4213Y-2.7106
M15
G01X5.4213Y-2.7303
M16
G05
G00X5.4276Y-3.7105
M15
G01X5.4454Y-3.7022
M16
G05
G00X5.6693Y-1.3937
M15
G01X5.689Y-1.3937
M16
G05
G00X5.6693Y-2.063
M15
G01X5.689Y-2.063
M16
G05
G00X5.6693Y-2.7323
M15
G01X5.689Y-2.7323
M16
G05
G00X5.7403Y-3.151
M15
G01X5.7454Y-3.17
M16
G05
G00X5.7992Y-0.9843
M15
G01X5.7992Y-1.0039
M16
G05
G00X5.7992Y-1.6535
M15
G01X5.7992Y-1.6732
M16
G05
G00X5.7992Y-2.3228
M15
G01X5.7992Y-2.3425
M16
G05
G00X5.8787Y-3.5154
M15
G01X5.8838Y-3.5344
M16
G05
G00X6.0906Y-0.8858
M15
G01X6.0906Y-0.9055
M16
G05
G00X6.0906Y-1.5551
M15
G01X6.0906Y-1.5748
M16
G05
G00X6.0906Y-2.2244
M15
G01X6.0906Y-2.2441
M16
G05
G00X6.1299Y-1.2736
M15
G01X6.1299Y-1.2933
M16
G05
G00X6.1299Y-1.9429
M15
G01X6.1299Y-1.9626
M16
G05
G00X6.1299Y-2.6122
M15
G01X6.1299Y-2.6319
M16
G05
G00X6.1239Y-3.4721
M15
G01X6.1429Y-3.467
M16
G05
G00X6.1434Y-3.043
M15
G01X6.1485Y-3.062
M16
G05
G00X6.378Y-1.2953
M15
G01X6.3976Y-1.2953
M16
G05
G00X6.378Y-1.9646
M15
G01X6.3976Y-1.9646
M16
G05
G00X6.378Y-2.6339
M15
G01X6.3976Y-2.6339
M16
G05
G00X6.5079Y-0.8858
M15
G01X6.5079Y-0.9055
M16
G05
G00X6.5079Y-1.5551
M15
G01X6.5079Y-1.5748
M16
G05
G00X6.5079Y-2.2244
M15
G01X6.5079Y-2.2441
M16
G05
G00X6.7992Y-0.6693
M15
G01X6.7992Y-0.689
M16
G05
G00X6.7992Y-1.3386
M15
G01X6.7992Y-1.3583
M16
G05
G00X6.7992Y-2.0079
M15
G01X6.7992Y-2.0276
M16
G05
G00X6.8386Y-1.0571
M15
G01X6.8386Y-1.0768
M16
G05
G00X6.8386Y-1.7264
M15
G01X6.8386Y-1.7461
M16
G05
G00X6.8386Y-2.3957
M15
G01X6.8386Y-2.4154
M16
G05
G00X7.0866Y-1.0787
M15
G01X7.1063Y-1.0787
M16
G05
G00X7.0866Y-1.748
M15
G01X7.1063Y-1.748
M16
G05
G00X7.0866Y-2.4173
M15
G01X7.1063Y-2.4173
M16
G05
G00X7.2165Y-0.6693
M15
G01X7.2165Y-0.689
M16
G05
G00X7.2165Y-1.3386
M15
G01X7.2165Y-1.3583
M16
G05
G00X7.2165Y-2.0079
M15
G01X7.2165Y-2.0276
M16
G05
G00X7.5079Y-0.9449
M15
G01X7.5079Y-0.9646
M16
G05
G00X7.5079Y-1.6142
M15
G01X7.5079Y-1.6339
M16
G05
G00X7.5079Y-2.2835
M15
G01X7.5079Y-2.3031
M16
G05
G00X7.5472Y-1.3327
M15
G01X7.5472Y-1.3524
M16
G05
G00X7.5472Y-2.002
M15
G01X7.5472Y-2.0217
M16
G05
G00X7.5472Y-2.6713
M15
G01X7.5472Y-2.6909
M16
G05
G00X7.7953Y-1.3543
M15
G01X7.815Y-1.3543
M16
G05
G00X7.7953Y-2.0236
M15
G01X7.815Y-2.0236
M16
G05
G00X7.7953Y-2.6929
M15
G01X7.815Y-2.6929
M16
G05
G00X7.9252Y-0.9449
M15
G01X7.9252Y-0.9646
M16
G05
G00X7.9252Y-1.6142
M15
G01X7.9252Y-1.6339
M16
G05
G00X7.9252Y-2.2835
M15
G01X7.9252Y-2.3031
M16
G05
G00X8.2165Y-1.4173
M15
G01X8.2165Y-1.437
M16
G05
G00X8.2165Y-2.0866
M15
G01X8.2165Y-2.1063
M16
G05
G00X8.2165Y-2.7559
M15
G01X8.2165Y-2.7756
M16
G05
G00X8.2559Y-1.8051
M15
G01X8.2559Y-1.8248
M16
G05
G00X8.2559Y-2.4744
M15
G01X8.2559Y-2.4941
M16
G05
G00X8.2559Y-3.1437
M15
G01X8.2559Y-3.1634
M16
G05
G00X8.5039Y-1.8268
M15
G01X8.5236Y-1.8268
M16
G05
G00X8.5039Y-2.4961
M15
G01X8.5236Y-2.4961
M16
G05
G00X8.5039Y-3.1654
M15
G01X8.5236Y-3.1654
M16
G05
G00X8.6339Y-1.4173
M15
G01X8.6339Y-1.437
M16
G05
G00X8.6339Y-2.0866
M15
G01X8.6339Y-2.1063
M16
G05
G00X8.6339Y-2.7559
M15
G01X8.6339Y-2.7756
M16
G05
T3
G00X4.9918Y-2.9094
M15
G01X5.0076Y-2.9094
M16
G05
G00X5.1099Y-2.9094
M15
G01X5.1257Y-2.9094
M16
G05
G00X5.2674Y-2.9094
M15
G01X5.2832Y-2.9094
M16
G05
G00X5.3107Y-3.0906
M15
G01X5.3265Y-3.0906
M16
G05
T0
M30
