%TF.GenerationSoftware,KiCad,Pcbnew,(6.0.7)*%
%TF.CreationDate,2022-09-28T21:41:44+08:00*%
%TF.ProjectId,ferris_right,66657272-6973-45f7-9269-6768742e6b69,rev?*%
%TF.SameCoordinates,Original*%
%TF.FileFunction,Legend,Bot*%
%TF.FilePolarity,Positive*%
%FSLAX46Y46*%
G04 Gerber Fmt 4.6, Leading zero omitted, Abs format (unit mm)*
G04 Created by KiCad (PCBNEW (6.0.7)) date 2022-09-28 21:41:44*
%MOMM*%
%LPD*%
G01*
G04 APERTURE LIST*
%ADD10C,0.150000*%
G04 APERTURE END LIST*
D10*
X218502619Y-29603571D02*
X218835952Y-29603571D01*
X218835952Y-30127380D02*
X218835952Y-29127380D01*
X218359761Y-29127380D01*
X217597857Y-30079761D02*
X217693095Y-30127380D01*
X217883571Y-30127380D01*
X217978809Y-30079761D01*
X218026428Y-29984523D01*
X218026428Y-29603571D01*
X217978809Y-29508333D01*
X217883571Y-29460714D01*
X217693095Y-29460714D01*
X217597857Y-29508333D01*
X217550238Y-29603571D01*
X217550238Y-29698809D01*
X218026428Y-29794047D01*
X217121666Y-30127380D02*
X217121666Y-29460714D01*
X217121666Y-29651190D02*
X217074047Y-29555952D01*
X217026428Y-29508333D01*
X216931190Y-29460714D01*
X216835952Y-29460714D01*
X216502619Y-30127380D02*
X216502619Y-29460714D01*
X216502619Y-29651190D02*
X216455000Y-29555952D01*
X216407380Y-29508333D01*
X216312142Y-29460714D01*
X216216904Y-29460714D01*
X215883571Y-30127380D02*
X215883571Y-29460714D01*
X215883571Y-29127380D02*
X215931190Y-29175000D01*
X215883571Y-29222619D01*
X215835952Y-29175000D01*
X215883571Y-29127380D01*
X215883571Y-29222619D01*
X215455000Y-30079761D02*
X215359761Y-30127380D01*
X215169285Y-30127380D01*
X215074047Y-30079761D01*
X215026428Y-29984523D01*
X215026428Y-29936904D01*
X215074047Y-29841666D01*
X215169285Y-29794047D01*
X215312142Y-29794047D01*
X215407380Y-29746428D01*
X215455000Y-29651190D01*
X215455000Y-29603571D01*
X215407380Y-29508333D01*
X215312142Y-29460714D01*
X215169285Y-29460714D01*
X215074047Y-29508333D01*
X213835952Y-30127380D02*
X213835952Y-29127380D01*
X213502619Y-29841666D01*
X213169285Y-29127380D01*
X213169285Y-30127380D01*
X212693095Y-30127380D02*
X212693095Y-29460714D01*
X212693095Y-29127380D02*
X212740714Y-29175000D01*
X212693095Y-29222619D01*
X212645476Y-29175000D01*
X212693095Y-29127380D01*
X212693095Y-29222619D01*
X212216904Y-29460714D02*
X212216904Y-30127380D01*
X212216904Y-29555952D02*
X212169285Y-29508333D01*
X212074047Y-29460714D01*
X211931190Y-29460714D01*
X211835952Y-29508333D01*
X211788333Y-29603571D01*
X211788333Y-30127380D01*
X211312142Y-30127380D02*
X211312142Y-29460714D01*
X211312142Y-29127380D02*
X211359761Y-29175000D01*
X211312142Y-29222619D01*
X211264523Y-29175000D01*
X211312142Y-29127380D01*
X211312142Y-29222619D01*
X209502619Y-30032142D02*
X209550238Y-30079761D01*
X209693095Y-30127380D01*
X209788333Y-30127380D01*
X209931190Y-30079761D01*
X210026428Y-29984523D01*
X210074047Y-29889285D01*
X210121666Y-29698809D01*
X210121666Y-29555952D01*
X210074047Y-29365476D01*
X210026428Y-29270238D01*
X209931190Y-29175000D01*
X209788333Y-29127380D01*
X209693095Y-29127380D01*
X209550238Y-29175000D01*
X209502619Y-29222619D01*
X208931190Y-30127380D02*
X209026428Y-30079761D01*
X209074047Y-30032142D01*
X209121666Y-29936904D01*
X209121666Y-29651190D01*
X209074047Y-29555952D01*
X209026428Y-29508333D01*
X208931190Y-29460714D01*
X208788333Y-29460714D01*
X208693095Y-29508333D01*
X208645476Y-29555952D01*
X208597857Y-29651190D01*
X208597857Y-29936904D01*
X208645476Y-30032142D01*
X208693095Y-30079761D01*
X208788333Y-30127380D01*
X208931190Y-30127380D01*
X208169285Y-30127380D02*
X208169285Y-29460714D01*
X208169285Y-29555952D02*
X208121666Y-29508333D01*
X208026428Y-29460714D01*
X207883571Y-29460714D01*
X207788333Y-29508333D01*
X207740714Y-29603571D01*
X207740714Y-30127380D01*
X207740714Y-29603571D02*
X207693095Y-29508333D01*
X207597857Y-29460714D01*
X207455000Y-29460714D01*
X207359761Y-29508333D01*
X207312142Y-29603571D01*
X207312142Y-30127380D01*
X206835952Y-29460714D02*
X206835952Y-30460714D01*
X206835952Y-29508333D02*
X206740714Y-29460714D01*
X206550238Y-29460714D01*
X206455000Y-29508333D01*
X206407380Y-29555952D01*
X206359761Y-29651190D01*
X206359761Y-29936904D01*
X206407380Y-30032142D01*
X206455000Y-30079761D01*
X206550238Y-30127380D01*
X206740714Y-30127380D01*
X206835952Y-30079761D01*
X205502619Y-30127380D02*
X205502619Y-29603571D01*
X205550238Y-29508333D01*
X205645476Y-29460714D01*
X205835952Y-29460714D01*
X205931190Y-29508333D01*
X205502619Y-30079761D02*
X205597857Y-30127380D01*
X205835952Y-30127380D01*
X205931190Y-30079761D01*
X205978809Y-29984523D01*
X205978809Y-29889285D01*
X205931190Y-29794047D01*
X205835952Y-29746428D01*
X205597857Y-29746428D01*
X205502619Y-29698809D01*
X204597857Y-30079761D02*
X204693095Y-30127380D01*
X204883571Y-30127380D01*
X204978809Y-30079761D01*
X205026428Y-30032142D01*
X205074047Y-29936904D01*
X205074047Y-29651190D01*
X205026428Y-29555952D01*
X204978809Y-29508333D01*
X204883571Y-29460714D01*
X204693095Y-29460714D01*
X204597857Y-29508333D01*
X204312142Y-29460714D02*
X203931190Y-29460714D01*
X204169285Y-29127380D02*
X204169285Y-29984523D01*
X204121666Y-30079761D01*
X204026428Y-30127380D01*
X203931190Y-30127380D01*
X214693095Y-31070714D02*
X214455000Y-31737380D01*
X214216904Y-31070714D01*
X213645476Y-30737380D02*
X213550238Y-30737380D01*
X213455000Y-30785000D01*
X213407380Y-30832619D01*
X213359761Y-30927857D01*
X213312142Y-31118333D01*
X213312142Y-31356428D01*
X213359761Y-31546904D01*
X213407380Y-31642142D01*
X213455000Y-31689761D01*
X213550238Y-31737380D01*
X213645476Y-31737380D01*
X213740714Y-31689761D01*
X213788333Y-31642142D01*
X213835952Y-31546904D01*
X213883571Y-31356428D01*
X213883571Y-31118333D01*
X213835952Y-30927857D01*
X213788333Y-30832619D01*
X213740714Y-30785000D01*
X213645476Y-30737380D01*
X212883571Y-31642142D02*
X212835952Y-31689761D01*
X212883571Y-31737380D01*
X212931190Y-31689761D01*
X212883571Y-31642142D01*
X212883571Y-31737380D01*
X212455000Y-30832619D02*
X212407380Y-30785000D01*
X212312142Y-30737380D01*
X212074047Y-30737380D01*
X211978809Y-30785000D01*
X211931190Y-30832619D01*
X211883571Y-30927857D01*
X211883571Y-31023095D01*
X211931190Y-31165952D01*
X212502619Y-31737380D01*
X211883571Y-31737380D01*
X211455000Y-31642142D02*
X211407380Y-31689761D01*
X211455000Y-31737380D01*
X211502619Y-31689761D01*
X211455000Y-31642142D01*
X211455000Y-31737380D01*
X210455000Y-31737380D02*
X211026428Y-31737380D01*
X210740714Y-31737380D02*
X210740714Y-30737380D01*
X210835952Y-30880238D01*
X210931190Y-30975476D01*
X211026428Y-31023095D01*
X210026428Y-31356428D02*
X209264523Y-31356428D01*
X208264523Y-31737380D02*
X208835952Y-31737380D01*
X208550238Y-31737380D02*
X208550238Y-30737380D01*
X208645476Y-30880238D01*
X208740714Y-30975476D01*
X208835952Y-31023095D01*
M02*
