%TF.GenerationSoftware,KiCad,Pcbnew,(6.0.7)*%
%TF.CreationDate,2022-09-28T21:41:44+08:00*%
%TF.ProjectId,ferris_right,66657272-6973-45f7-9269-6768742e6b69,rev?*%
%TF.SameCoordinates,Original*%
%TF.FileFunction,Profile,NP*%
%FSLAX46Y46*%
G04 Gerber Fmt 4.6, Leading zero omitted, Abs format (unit mm)*
G04 Created by KiCad (PCBNEW (6.0.7)) date 2022-09-28 21:41:44*
%MOMM*%
%LPD*%
G01*
G04 APERTURE LIST*
%TA.AperFunction,Profile*%
%ADD10C,0.050000*%
%TD*%
%TA.AperFunction,Profile*%
%ADD11C,0.120000*%
%TD*%
G04 APERTURE END LIST*
D10*
X220290000Y-83077536D02*
G75*
G03*
X152180000Y-92710000I423691J-248610926D01*
G01*
X152180002Y-92710007D02*
G75*
G03*
X131225000Y-100965000I25992898J-96706293D01*
G01*
X133130000Y-38735000D02*
X133900000Y-22059419D01*
X123605000Y-84314238D02*
X123287500Y-42985274D01*
X123605000Y-84314238D02*
G75*
G03*
X124875000Y-90170000I11105190J-657102D01*
G01*
X128684942Y-100330036D02*
G75*
G03*
X131225000Y-100965000I1596858J989936D01*
G01*
X128685000Y-100330000D02*
X124875000Y-90170000D01*
X131837498Y-39884996D02*
G75*
G03*
X133130000Y-38735000I-227298J1556796D01*
G01*
X124897499Y-41394997D02*
G75*
G03*
X123287500Y-42985274I530601J-2147303D01*
G01*
X124897500Y-41395000D02*
X131837499Y-39885000D01*
X171791363Y-13136374D02*
X175991611Y-13128139D01*
X171791364Y-13136389D02*
G75*
G03*
X134334755Y-21378889I11946136J-143515911D01*
G01*
X134334748Y-21378874D02*
G75*
G03*
X133900000Y-22059419I315252J-680526D01*
G01*
X222391945Y-31898702D02*
G75*
G03*
X220965000Y-29885000I-3871945J-1231298D01*
G01*
X220964989Y-29885013D02*
G75*
G03*
X175991611Y-13128139I-44973389J-51973087D01*
G01*
X220290001Y-83077506D02*
G75*
G03*
X222349981Y-81147211I59999J2000306D01*
G01*
X222391945Y-31898702D02*
X222349981Y-81147211D01*
D11*
%TO.C,K2_5*%
X144250000Y-66600000D02*
X147800000Y-66600000D01*
X147800000Y-61050000D02*
X147800000Y-66600000D01*
X136200000Y-66600000D02*
X136200000Y-61050000D01*
X136200000Y-61050000D02*
X147800000Y-61050000D01*
X139750000Y-67600000D02*
X144250000Y-67600000D01*
X139750000Y-66600000D02*
X139750000Y-67600000D01*
X144250000Y-67600000D02*
X144250000Y-66600000D01*
X139750000Y-66600000D02*
X136200000Y-66600000D01*
%TO.C,K0_9*%
X219800000Y-38050000D02*
X219800000Y-43600000D01*
X216250000Y-44600000D02*
X216250000Y-43600000D01*
X208200000Y-43600000D02*
X208200000Y-38050000D01*
X211750000Y-43600000D02*
X211750000Y-44600000D01*
X211750000Y-43600000D02*
X208200000Y-43600000D01*
X211750000Y-44600000D02*
X216250000Y-44600000D01*
X208200000Y-38050000D02*
X219800000Y-38050000D01*
X216250000Y-43600000D02*
X219800000Y-43600000D01*
%TO.C,K0_8*%
X198250000Y-31600000D02*
X201800000Y-31600000D01*
X198250000Y-32600000D02*
X198250000Y-31600000D01*
X190200000Y-31600000D02*
X190200000Y-26050000D01*
X193750000Y-31600000D02*
X190200000Y-31600000D01*
X193750000Y-32600000D02*
X198250000Y-32600000D01*
X201800000Y-26050000D02*
X201800000Y-31600000D01*
X193750000Y-31600000D02*
X193750000Y-32600000D01*
X190200000Y-26050000D02*
X201800000Y-26050000D01*
%TO.C,K0_5*%
X136200000Y-32600000D02*
X136200000Y-27050000D01*
X136200000Y-27050000D02*
X147800000Y-27050000D01*
X139750000Y-32600000D02*
X136200000Y-32600000D01*
X147800000Y-27050000D02*
X147800000Y-32600000D01*
X139750000Y-33600000D02*
X144250000Y-33600000D01*
X144250000Y-33600000D02*
X144250000Y-32600000D01*
X139750000Y-32600000D02*
X139750000Y-33600000D01*
X144250000Y-32600000D02*
X147800000Y-32600000D01*
%TO.C,K0_6*%
X165800000Y-24550000D02*
X165800000Y-30100000D01*
X162250000Y-31100000D02*
X162250000Y-30100000D01*
X162250000Y-30100000D02*
X165800000Y-30100000D01*
X154200000Y-24550000D02*
X165800000Y-24550000D01*
X157750000Y-30100000D02*
X154200000Y-30100000D01*
X154200000Y-30100000D02*
X154200000Y-24550000D01*
X157750000Y-30100000D02*
X157750000Y-31100000D01*
X157750000Y-31100000D02*
X162250000Y-31100000D01*
%TO.C,K0_7*%
X172200000Y-24600000D02*
X172200000Y-19050000D01*
X180250000Y-25600000D02*
X180250000Y-24600000D01*
X172200000Y-19050000D02*
X183800000Y-19050000D01*
X183800000Y-19050000D02*
X183800000Y-24600000D01*
X175750000Y-24600000D02*
X175750000Y-25600000D01*
X175750000Y-24600000D02*
X172200000Y-24600000D01*
X175750000Y-25600000D02*
X180250000Y-25600000D01*
X180250000Y-24600000D02*
X183800000Y-24600000D01*
%TO.C,K1_9*%
X208200000Y-60600000D02*
X208200000Y-55050000D01*
X219800000Y-55050000D02*
X219800000Y-60600000D01*
X216250000Y-60600000D02*
X219800000Y-60600000D01*
X211750000Y-61600000D02*
X216250000Y-61600000D01*
X216250000Y-61600000D02*
X216250000Y-60600000D01*
X208200000Y-55050000D02*
X219800000Y-55050000D01*
X211750000Y-60600000D02*
X211750000Y-61600000D01*
X211750000Y-60600000D02*
X208200000Y-60600000D01*
%TO.C,K1_8*%
X193750000Y-49600000D02*
X198250000Y-49600000D01*
X198250000Y-49600000D02*
X198250000Y-48600000D01*
X201800000Y-43050000D02*
X201800000Y-48600000D01*
X193750000Y-48600000D02*
X193750000Y-49600000D01*
X190200000Y-43050000D02*
X201800000Y-43050000D01*
X190200000Y-48600000D02*
X190200000Y-43050000D01*
X198250000Y-48600000D02*
X201800000Y-48600000D01*
X193750000Y-48600000D02*
X190200000Y-48600000D01*
%TO.C,K1_7*%
X175750000Y-42600000D02*
X180250000Y-42600000D01*
X180250000Y-41600000D02*
X183800000Y-41600000D01*
X172200000Y-36050000D02*
X183800000Y-36050000D01*
X175750000Y-41600000D02*
X175750000Y-42600000D01*
X172200000Y-41600000D02*
X172200000Y-36050000D01*
X183800000Y-36050000D02*
X183800000Y-41600000D01*
X180250000Y-42600000D02*
X180250000Y-41600000D01*
X175750000Y-41600000D02*
X172200000Y-41600000D01*
%TO.C,K1_6*%
X157750000Y-48100000D02*
X162250000Y-48100000D01*
X157750000Y-47100000D02*
X154200000Y-47100000D01*
X162250000Y-48100000D02*
X162250000Y-47100000D01*
X154200000Y-47100000D02*
X154200000Y-41550000D01*
X154200000Y-41550000D02*
X165800000Y-41550000D01*
X157750000Y-47100000D02*
X157750000Y-48100000D01*
X162250000Y-47100000D02*
X165800000Y-47100000D01*
X165800000Y-41550000D02*
X165800000Y-47100000D01*
%TO.C,K1_5*%
X147800000Y-44050000D02*
X147800000Y-49600000D01*
X139750000Y-49600000D02*
X139750000Y-50600000D01*
X136200000Y-49600000D02*
X136200000Y-44050000D01*
X139750000Y-50600000D02*
X144250000Y-50600000D01*
X136200000Y-44050000D02*
X147800000Y-44050000D01*
X144250000Y-49600000D02*
X147800000Y-49600000D01*
X139750000Y-49600000D02*
X136200000Y-49600000D01*
X144250000Y-50600000D02*
X144250000Y-49600000D01*
%TO.C,K2_6*%
X162250000Y-64100000D02*
X165800000Y-64100000D01*
X154200000Y-58550000D02*
X165800000Y-58550000D01*
X154200000Y-64100000D02*
X154200000Y-58550000D01*
X157750000Y-64100000D02*
X157750000Y-65100000D01*
X157750000Y-64100000D02*
X154200000Y-64100000D01*
X165800000Y-58550000D02*
X165800000Y-64100000D01*
X162250000Y-65100000D02*
X162250000Y-64100000D01*
X157750000Y-65100000D02*
X162250000Y-65100000D01*
%TO.C,K2_7*%
X175750000Y-58600000D02*
X172200000Y-58600000D01*
X175750000Y-59600000D02*
X180250000Y-59600000D01*
X183800000Y-53050000D02*
X183800000Y-58600000D01*
X172200000Y-58600000D02*
X172200000Y-53050000D01*
X180250000Y-58600000D02*
X183800000Y-58600000D01*
X172200000Y-53050000D02*
X183800000Y-53050000D01*
X175750000Y-58600000D02*
X175750000Y-59600000D01*
X180250000Y-59600000D02*
X180250000Y-58600000D01*
%TO.C,K2_8*%
X193750000Y-65600000D02*
X193750000Y-66600000D01*
X190200000Y-65600000D02*
X190200000Y-60050000D01*
X198250000Y-65600000D02*
X201800000Y-65600000D01*
X193750000Y-66600000D02*
X198250000Y-66600000D01*
X201800000Y-60050000D02*
X201800000Y-65600000D01*
X198250000Y-66600000D02*
X198250000Y-65600000D01*
X193750000Y-65600000D02*
X190200000Y-65600000D01*
X190200000Y-60050000D02*
X201800000Y-60050000D01*
%TO.C,K2_9*%
X211750000Y-78600000D02*
X216250000Y-78600000D01*
X216250000Y-77600000D02*
X219800000Y-77600000D01*
X211750000Y-77600000D02*
X208200000Y-77600000D01*
X208200000Y-72050000D02*
X219800000Y-72050000D01*
X211750000Y-77600000D02*
X211750000Y-78600000D01*
X208200000Y-77600000D02*
X208200000Y-72050000D01*
X219800000Y-72050000D02*
X219800000Y-77600000D01*
X216250000Y-78600000D02*
X216250000Y-77600000D01*
%TO.C,K3_6*%
X155321607Y-86389044D02*
X155062788Y-85423118D01*
X155062788Y-85423118D02*
X158491824Y-84504311D01*
X150974940Y-87553730D02*
X155321607Y-86389044D01*
X150716121Y-86587804D02*
X147287085Y-87506612D01*
X157055379Y-79143422D02*
X158491824Y-84504311D01*
X147287085Y-87506612D02*
X145850639Y-82145723D01*
X145850639Y-82145723D02*
X157055379Y-79143422D01*
X150716121Y-86587804D02*
X150974940Y-87553730D01*
%TO.C,K3_5*%
X132825342Y-93506158D02*
X133247960Y-94412466D01*
X136903727Y-91604376D02*
X140121120Y-90104081D01*
X137775588Y-85074073D02*
X140121120Y-90104081D01*
X127262418Y-89976445D02*
X137775588Y-85074073D01*
X137326345Y-92510684D02*
X136903727Y-91604376D01*
X133247960Y-94412466D02*
X137326345Y-92510684D01*
X132825342Y-93506158D02*
X129607949Y-95006453D01*
X129607949Y-95006453D02*
X127262418Y-89976445D01*
%TD*%
M02*
